<?xml version="1.0" standalone="no"?>
<!DOCTYPE svg PUBLIC "-//W3C//DTD SVG 20010904//EN"
 "http://www.w3.org/TR/2001/REC-SVG-20010904/DTD/svg10.dtd">
<svg version="1.0" xmlns="http://www.w3.org/2000/svg"
 width="900.000000pt" height="900.000000pt" viewBox="0 0 900.000000 900.000000"
 preserveAspectRatio="xMidYMid meet">
<metadata>
Created by potrace 1.11, written by Peter Selinger 2001-2013
</metadata>
<g transform="translate(0.000000,900.000000) scale(0.100000,-0.100000)"
fill="#000000" stroke="none">
<path d="M2240 8786 c0 -3 63 -163 139 -356 107 -270 136 -353 125 -357 -8 -3
-14 -12 -14 -19 0 -8 62 -160 139 -337 76 -177 262 -621 414 -987 152 -366
335 -798 408 -960 l132 -295 -2 -2402 -3 -2403 75 0 c41 0 115 -3 165 -6 l92
-7 0 1359 c-1 1310 4 1835 17 1994 l6 75 23 -75 c56 -178 142 -531 249 -1025
167 -769 260 -1155 276 -1155 8 0 87 296 133 495 19 83 91 416 161 740 69 325
149 685 178 800 l52 210 7 -105 c4 -58 10 -826 14 -1707 l6 -1603 63 0 c34 0
104 3 155 7 l93 6 -6 2392 -7 2392 81 184 c156 358 236 557 592 1489 266 695
396 1016 578 1428 55 122 99 225 99 227 0 3 -999 5 -2220 5 -1221 0 -2220 -2
-2220 -4z"/>
<path d="M3084 5391 l-112 -6 -88 -81 c-382 -349 -625 -792 -684 -1249 -52
-400 -68 -675 -76 -1260 -6 -406 -5 -456 15 -650 51 -493 153 -1083 251 -1446
l11 -39 164 0 c125 0 165 3 165 13 0 6 -20 81 -45 165 -162 556 -267 1223
-301 1915 l-7 137 302 0 301 0 2 -1118 c3 -986 5 -1117 18 -1115 8 1 81 7 163
13 l147 13 0 2358 0 2359 -57 -2 c-32 -1 -108 -4 -169 -7z m-95 -1568 l1 -623
-320 0 -321 0 6 48 c2 26 10 97 15 157 30 312 108 662 203 910 102 264 179
403 308 549 l94 108 6 -264 c4 -145 7 -543 8 -885z"/>
<path d="M5598 3027 c1 -1304 4 -2373 7 -2375 8 -8 287 19 353 34 97 22 137
48 260 168 214 208 361 421 569 822 l94 182 -78 6 c-43 3 -116 8 -163 12 l-85
6 -87 -159 c-163 -298 -285 -471 -432 -615 -43 -43 -82 -78 -86 -78 -12 0 -20
458 -20 1167 l0 683 460 0 460 0 0 180 0 180 -453 0 -454 0 -6 443 c-5 322 4
1194 13 1297 0 2 34 -29 76 -70 93 -92 214 -252 324 -430 104 -167 180 -283
193 -291 12 -9 296 -34 302 -27 11 10 -12 129 -27 141 -9 6 -78 116 -154 242
-231 387 -371 582 -525 732 -90 87 -163 108 -414 116 l-130 4 3 -2370z"/>
<path d="M3758 483 c-91 -4 -98 -5 -103 -26 -11 -46 -45 -220 -45 -228 0 -5
343 -9 810 -9 l810 0 0 135 0 135 -687 -2 c-379 -1 -732 -4 -785 -5z"/>
</g>
</svg>
