<?xml version="1.0" encoding="UTF-8"?>
<svg id="Layer_1" xmlns="http://www.w3.org/2000/svg" version="1.1" viewBox="0 0 512 512">
  <!-- Generator: Adobe Illustrator 29.8.1, SVG Export Plug-In . SVG Version: 2.1.1 Build 2)  -->
  <path d="M212.3487,266.0398l22.8998-9.6633c3.3162.2946-6.4898,9.4169-8.5707,13.759-5.9295,8.1908-12.9894,9.9487-22.3587,17.1895-2.1,1.6343-4.6084,4.3706-3.1451,9.8153.399,1.5015-2.9364,5.6825-4.3138,6.4428-3.2403,1.5769-17.0468-5.1501-19.8028-8.7801-7.6967-10.0913-12.3051-12.7331-18.1111-18.4724-3.2113-3.5059-5.226-7.6868-6.0716-12.5614.0858-.7221.4559-1.0265,1.1118-.9506l6.9462,3.4305,21.4273,3.8579c7.3829,1.0642,23.964-.798,29.9887-4.0673" style="fill: #231f20;"/>
  <path d="M273.5991,109.113c-15.8881-14.0438-34.1035-17.7306-52.8131-26.5774-9.7393-4.6084-9.1976-15.0228-9.6541-24.268-.399-11.0987,1.3873-22.9004,8.2384-31.8985,10.6423-14.016,20.6101-22.7102,38.6069-21.1994,9.8727.8172,17.8739-.2186,26.6058,5.1976,9.512,5.9104,16.3346,14.709,23.2426,23.3278,13.7967,17.2173,33.3618,27.5749,52.4419,37.8466,30.7676,16.6003,53.2875,41.6952,73.6129,69.5462,22.2062,30.473,37.4,72.0447,26.0925,109.5398l-2.3181,6.6516c-3.3069,12.4385-18.1302,30.825-28.25,38.8639l-5.3119,4.323s-5.6442,3.9913-5.6535,3.9913c-34.2839,24.2111-27.5088,56.1096-28.2308,92.3793-6.0055,33.1721-28.7818,61.3548-55.9484,80.1218-19.213,13.2556-67.2751,40.4408-88.17,21.5984-1.7579-1.5775,15.6973-7.079,25.1333-17.3983,9.3879-10.2717,16.885-24.9529,20.9801-37.9707,4.58-14.633,5.4922-30.1215,5.1031-45.3722-.3897-15.0993-2.1575-30.1221-5.4354-44.8595-2.2613-10.5478-4.352-21.9783-1.4824-32.6113,2.328-8.7134,6.5373-17.1327,9.9011-25.4847.399-1.0167.798-2.0241,1.226-3.0216l17.4934-30.0745s6.6226-12.856,6.7745-13.1414c8.0296-15.5929,6.3761-32.6583,2.2334-49.0782l-3.6491-12.6281-4.9883-12.2958-6.2334-11.5453c-3.0315-5.8153,1.3681-8.9036,5.9957-16.7714,1.3965-1.6245,3.1736-.0853,5.1976-1.824,8.1148-6.9839,17.8356-30.3976-7.9246-51.093-2.2329-1.7863-10.9277-3.7152-15.5836,2.0716-1.0167,1.273-11.9345,27.6607-27.2327,13.6541" style="fill: #231f20; fill-rule: evenodd;"/>
  <path d="M96.6887,292.5799c1.5398,12.5614,5.6918,25.1043,12.2958,35.8892,11.2791,18.3866,27.0054,32.1931,41.5816,47.7385,14.709,15.6503,34.1505,35.8898,36.127,58.5803.7598,8.638-3.4873,14.0252-5.1692,21.7503-.6461,3.0222-1.1216,6.9462.6461,9.7022,1.7863,2.8122,7.0599,2.7461,8.7992-.4848,4.4657-8.3619,3.7628-17.7312,7.3162-26.3019,4.6844-11.3359,5.2452-26.8911,2.7368-38.8349-1.9574-9.3502-6.3193-18.016-10.5379-26.5014-4.7986-9.6639-9.7016-19.2896-15.1562-28.6014-10.2903-17.5694-22.8905-33.951-34.8627-50.4086-25.8176-35.5001-4.7986-54.6655-11.3835-89.6338-.6275-4.4657-2.4805-9.1976-4.2575-14.3193l-4.6084-9.008-1.6819-4.1334c-.7128-2.4039-1.4441-4.7893-2.1-7.2124-.8456-3.0883-.9883-6.7751-1.0642-9.9678-.1804-9.7492,5.2927-19.1747,9.9017-27.4229l9.1883-15.1939,7.8486-11.5355,4.9413-7.5256,4.9883-5.3119,4.6467-4.9883,4.3236-4.6565c6.5373-8.1618,10.9178-17.6831,17.2655-25.9498,3.1927-4.1433,11.982-11.0605,17.9493-8.609l1.6726.6838c1.5485.4182,2.4324-.1421,2.651-1.672v-2.6609c-3.4305-7.9339-15.4885-9.9771-22.9857-8.7795-16.667,2.6411-29.5514,18.0919-41.6575,28.696l-9.3119,7.6016c-21.142,20.4298-47.2542,34.6829-67.8736,55.6729l-2.9932,3.9913c-4.7702,6.4329-7.4589,12.2482-9.1222,20.2013-3.8863,18.8047,2.9364,34.3692,13.8449,49.2684,4.352,5.9295,10.1865,10.8134,14.4619,16.8282,7.5088,10.5646,10.5304,22.571,12.3741,34.919h8.069-8.069c.6153,4.1224,1.0996,8.2824,1.5752,12.4396" style="fill: #231f20;"/>
  <path d="M169.5793,128.0221c2.6986,3.2026-16.4959,26.8151-16.515,30.1981-.9314.9123-1.9765,1.273-3.2403,1.2922-1.9191-5.2168,2.0525-13.4928.9506-15.0703-2.1099-2.8981-6.4712-.3613-6.7751-4.6467-2.3854-2.4515-5.4354-3.5534-4.903-7.2785.9975-6.9932,24.1444-12.058,30.4828-4.4947" style="fill: #231f20;"/>
  <path d="M261.3317,130.825s.7598.6652-.5892,4.0481c-.352.903-.7511,1.6535-1.8246,3.3545-3.1834,5.0741-19.565,17.3409-33.001,12.2766-4.4941-1.701-8.7511,10.4329-17.4267,9.8153-3.7152-.399.7412-6.651,2.4991-9.2736,4.4089-6.6325,6.1766-13.5218,10.0629-19.0709,1.3965-1.9672,3.0692-2.4324,4.5133-2.6319,7.0315-.323,13.4644-.6368,21.9783,1.7103,1.2736.3515,1.7294.5794,3.0407.9975,2.0049.2471,2.651-.9883,3.6775-1.6343,2.4324-1.5201,5.1501-2.7554,7.0697.4083" style="fill: #231f20;"/>
  <path d="M184.9443,170.2967c-13.8164-7.4305-30.3976-1.3681-38.4457-1.1019-2.9364,1.1878-6.3286,5.1216,8.0957,15.2606,2.0809,2.1377,1.2829,4.3613,4.0383,6.2334.6275,1.2823,5.7869,12.4477,6.2427,17.5218.0667,7.003-6.5559,8.2859-8.8079,10.6991-8.7615,9.2458-13.1796,18.6719-11.7541,20.6101,2.7078,2.2427,7.3736-1.5775,9.6825-3.6775,2.0525-1.8907,4.1711-3.677,6.5849-5.0834,2.4039-1.4064,5.9388-3.4873,8.7325-3.8388,3.63-.428,9.255,3.7529,11.8109,6.0148,3.7535,3.3446,8.3619,6.1575,12.4669,9.084,2.1476,1.5491,4.5133,3.05,7.0883,3.7628,2.4898.6936,5.0364.0951,7.5355.5608,3.601.6652,6.8604,1.2353,10.5188.6461,3.5824-.5608,6.832-2.4614,10.3384-3.079,1.9191-.3416,3.677-1.2922,5.2168-2.4515,5.7294-4.2471-.5515-9.3594-5.5497-9.084-1.6912.0858-.7696-1.2637-1.7196-1.8623-.5417-.3515-1.4447-.2853-2.0716-.3515-.9598-.076-1.9191-.0951-2.8789-.0476-2.5849.1328-5.0932.7029-7.5923,1.3014-1.4632.352-2.9364.6844-4.4187.9598-1.7387.323-3.6108.323-5.3113.7319-10.4428,2.5176-16.41-11.764-23.0332-16.4292-3.4305-3.05-10.1482-4.2285-10.3001-9.3217,1.6245-4.5707.7029-13.2458,7.3545-17.4743,2.9833-.7696,5.3589-3.5256,8.1908-4.7893,0,0,3.2211.2094,10.0722-3.677,2.2996-1.2922,8.6942-4.0858,8.3051-7.4021-.9221-8.0104-11.9727,3.8289-18.9572-2.6986" style="fill: #231f20;"/>
</svg>