<svg width="113" height="127" viewBox="0 0 113 127" fill="none" xmlns="http://www.w3.org/2000/svg">
<g clip-path="url(#clip0_87_3995)">
<path d="M93.364 68.1259C83.0668 47.2842 65.0949 47.8901 61.1957 48.2863C76.2819 48.294 88.5055 60.5753 88.5055 75.7308C88.5055 90.8863 76.2664 103.175 61.1725 103.175C46.0786 103.175 33.8395 90.8863 33.8395 75.7308C33.8395 60.5753 46.0786 48.2863 61.1725 48.2863V0C28.7798 4.59869 -1.81025 31.9267 0.0851881 72.5692C1.36945 100.091 26.4898 129.136 61.1802 126.876C91.7084 124.879 104.76 91.2048 93.364 68.1336V68.1259Z" fill="#2BB0CA"/>
<path style="mix-blend-mode:multiply" d="M93.364 68.1259C83.0668 47.2842 65.0949 47.8901 61.1957 48.2863C76.2819 48.294 88.5055 60.5753 88.5055 75.7308C88.5055 90.8863 76.2664 103.175 61.1725 103.175C46.0786 103.175 33.8395 90.8863 33.8395 75.7308C33.8395 60.5753 46.0786 48.2863 61.1725 48.2863V0C28.7798 4.59869 -1.81025 31.9267 0.0851881 72.5692C1.36945 100.091 26.4898 129.136 61.1802 126.876C91.7084 124.879 104.76 91.2048 93.364 68.1336V68.1259Z" fill="url(#paint0_radial_87_3995)"/>
<path d="M61.1802 24.5859C33.0503 24.5859 10.2432 47.4862 10.2432 75.7308C10.2432 103.975 33.0503 126.876 61.1802 126.876C89.3101 126.876 112.117 103.975 112.117 75.7308C112.117 47.4862 89.3101 24.5859 61.1802 24.5859ZM61.1802 103.175C46.0863 103.175 33.8472 90.8863 33.8472 75.7308C33.8472 60.5754 46.0863 48.2863 61.1802 48.2863C76.2741 48.2863 88.5132 60.5754 88.5132 75.7308C88.5132 90.8863 76.2741 103.175 61.1802 103.175Z" fill="url(#paint1_linear_87_3995)"/>
</g>
<defs>
<radialGradient id="paint0_radial_87_3995" cx="0" cy="0" r="1" gradientUnits="userSpaceOnUse" gradientTransform="translate(22.9775 114.959) scale(81.7747 82.1084)">
<stop stop-color="#001F63"/>
<stop offset="0.29" stop-color="#001F63" stop-opacity="0.67"/>
<stop offset="0.77" stop-color="#001F63" stop-opacity="0.19"/>
<stop offset="1" stop-color="#001F63" stop-opacity="0"/>
</radialGradient>
<linearGradient id="paint1_linear_87_3995" x1="61.1802" y1="24.8112" x2="61.1802" y2="127.505" gradientUnits="userSpaceOnUse">
<stop stop-color="#33B5E8"/>
<stop offset="1" stop-color="#33B5E8" stop-opacity="0"/>
</linearGradient>
<clipPath id="clip0_87_3995">
<rect width="112.117" height="127" fill="white"/>
</clipPath>
</defs>
</svg>
