<?xml version="1.0" encoding="utf-8"?>
<!-- Generator: Adobe Illustrator 26.3.1, SVG Export Plug-In . SVG Version: 6.00 Build 0)  -->
<svg version="1.1" id="Layer_1" xmlns="http://www.w3.org/2000/svg" xmlns:xlink="http://www.w3.org/1999/xlink" x="0px" y="0px"
	 viewBox="0 0 2927 654.519714" style="enable-background:new 0 0 2927 654.519714;" xml:space="preserve">
<style type="text/css">
	.st0{fill:#003760;}
	.st1{fill:none;stroke:#003760;stroke-width:2.813423;}
	.st2{fill:#003760;stroke:#003760;stroke-width:2.813423;}
</style>
<g id="Group_320-2_00000019647552012873839830000006483471835901460098_" transform="translate(75.12 47.594)">
	<path id="Path_7770_00000042722240189899900710000004500379900498655159_" class="st0" d="M737.776123,428.738708h-45.014771
		v3.04126c10.054993,0.782623,13.868958,1.753448,13.868958,14.354401v70.860626c0,12.283936-3.665344,13.71051-13.868958,14.354431
		v3.031311h85.848999l7.657654-27.737946h-3.962585c-9.104004,20.902557-19.317505,21.546478-43.251404,21.546478
		c-13.264709-0.029724-16.137573-0.188232-16.137573-6.577881v-75.47702c0-12.600952,3.962585-13.720367,14.85968-14.354401
		V428.738708z"/>
</g>
<g id="Group_321_00000162347859559230803360000014438125821947311772_" transform="translate(75.12 47.594)">
	<path id="Path_7771_00000139980829159182732710000008162098728814137763_" class="st1" d="M737.776123,428.738708h-45.014771
		v3.04126c10.054993,0.782623,13.868958,1.753448,13.868958,14.354401v70.860626c0,12.283936-3.665344,13.71051-13.868958,14.354431
		v3.031311h85.848999l7.657654-27.737946h-3.962585c-9.104004,20.902557-19.317505,21.546478-43.251404,21.546478
		c-13.264709-0.029724-16.137573-0.188232-16.137573-6.577881v-75.47702c0-12.600952,3.962585-13.720367,14.85968-14.354401
		V428.738708z"/>
</g>
<g id="Group_322_00000142136023233787943610000007752684316678061474_" transform="translate(97.778 47.594)">
	<path id="Path_7772_00000024696435737944626390000003962711290701070976_" class="st0" d="M894.562927,534.380737h47.392334
		v-3.031311c-11.808472-0.326965-15.691772-1.921875-15.691772-14.354431v-70.850708
		c0-12.75946,3.962524-13.868988,15.6521-14.354401v-3.04126h-47.352661v3.04126
		c13.244873,0.634003,15.483765,2.545959,15.483765,14.354401v70.850708c0,11.332947-1.902039,14.037415-15.483765,14.35437
		V534.380737z"/>
</g>
<g id="Group_323_00000058579141363779781040000008024630917989745592_" transform="translate(97.778 47.594)">
	<path id="Path_7773_00000034784886345165726200000015604328658735961252_" class="st1" d="M894.562927,534.380737h47.392334
		v-3.031311c-11.808472-0.326965-15.691772-1.921875-15.691772-14.354431v-70.850708
		c0-12.75946,3.962524-13.868988,15.6521-14.354401v-3.04126h-47.352661v3.04126
		c13.244873,0.634003,15.483765,2.545959,15.483765,14.354401v70.850708c0,11.332947-1.902039,14.037415-15.483765,14.35437
		V534.380737z"/>
</g>
<g id="Group_324_00000018231511631123493320000002654717397250471556_" transform="translate(115.763 47.594)">
	<path id="Path_7774_00000180337081693817454560000006933868974344721024_" class="st0" d="M1190.542114,428.738708h-31.700562
		l-35.326294,80.588715l-36.871704-80.588715h-31.60144v3.04126c11.80835,0.634033,15.156738,1.911957,15.156738,14.354401
		v64.827606c0,17.237183-3.348389,19.634521-15.483643,20.427063v3.031372h37.505615v-3.031372
		c-11.65979-0.485413-15.008179-3.962585-15.008179-20.427063v-63.70816h0.317017l39.754395,87.176483h2.219116l40.566772-90.83197
		h0.307129v71.633301c0,13.086426-2.070435,15.473877-14.512939,16.117737v3.031372h44.687866v-3.031372
		c-10.213501-0.64386-13.869019-2.070435-13.869019-14.35437v-70.860626c0-12.61087,3.83374-13.571777,13.869019-14.354401
		L1190.542114,428.738708z"/>
</g>
<g id="Group_325_00000034060456021556618100000017720785825207894939_" transform="translate(115.763 47.594)">
	<path id="Path_7775_00000169540750753301854280000016406740729244054716_" class="st1" d="M1190.542114,428.738708h-31.700562
		l-35.326294,80.588715l-36.871704-80.588715h-31.60144v3.04126c11.80835,0.634033,15.156738,1.911957,15.156738,14.354401
		v64.827606c0,17.237183-3.348389,19.634521-15.483643,20.427063v3.031372h37.505615v-3.031372
		c-11.65979-0.485413-15.008179-3.962585-15.008179-20.427063v-63.70816h0.317017l39.754395,87.176483h2.219116l40.566772-90.83197
		h0.307129v71.633301c0,13.086426-2.070435,15.473877-14.512939,16.117737v3.031372h44.687866v-3.031372
		c-10.213501-0.64386-13.869019-2.070435-13.869019-14.35437v-70.860626c0-12.61087,3.83374-13.571777,13.869019-14.354401
		L1190.542114,428.738708z"/>
</g>
<g id="Group_326_00000144302440519965364020000009452119010447135365_" transform="translate(142.9 47.594)">
	<path id="Path_7776_00000006698824430853239930000015955756653185827976_" class="st0" d="M1296.438354,534.380737h47.382324
		v-3.031311c-11.798462-0.326965-15.681885-1.921875-15.681885-14.354431v-70.850708
		c0-12.75946,3.962646-13.868988,15.632324-14.354401v-3.04126h-47.332764v3.04126
		c13.244873,0.634003,15.463867,2.545959,15.463867,14.354401v70.850708c0,11.332947-1.921875,14.037415-15.463867,14.35437
		V534.380737z"/>
</g>
<g id="Group_327_00000136383861237314906770000017505059727834919568_" transform="translate(142.9 47.594)">
	<path id="Path_7777_00000103236313827099088270000002397657019614237117_" class="st1" d="M1296.438354,534.380737h47.382324
		v-3.031311c-11.798462-0.326965-15.681885-1.921875-15.681885-14.354431v-70.850708
		c0-12.75946,3.962646-13.868988,15.632324-14.354401v-3.04126h-47.332764v3.04126
		c13.244873,0.634003,15.463867,2.545959,15.463867,14.354401v70.850708c0,11.332947-1.921875,14.037415-15.463867,14.35437
		V534.380737z"/>
</g>
<g id="Group_328_00000004539255071917922280000015475727479673802421_" transform="translate(160.965 47.594)">
	<path id="Path_7778_00000150074723620878470990000015868271343285609094_" class="st0" d="M1526.737183,531.349426
		c-13.393555-0.485474-15.30542-3.546509-15.30542-14.354431v-81.549652h8.608643
		c17.554199,0,22.03186,2.882782,25.380249,20.436951h3.83374l-0.990601-27.143585h-89.989868l-0.990723,27.133698h3.813965
		c3.516846-17.395691,7.826172-20.436951,25.380249-20.436951h8.618652v79.786285
		c0,11.818359-0.475586,15.483765-14.988403,16.127686v3.031311h46.560181L1526.737183,531.349426z"/>
</g>
<g id="Group_329_00000176028010732720769700000000858386917058905231_" transform="translate(160.965 47.594)">
	<path id="Path_7779_00000088131069445894073220000000171856352233276812_" class="st1" d="M1526.737183,531.349426
		c-13.393555-0.485474-15.30542-3.546509-15.30542-14.354431v-81.549652h8.608643
		c17.554199,0,22.03186,2.882782,25.380249,20.436951h3.83374l-0.990601-27.143585h-89.989868l-0.990723,27.133698h3.813965
		c3.516846-17.395691,7.826172-20.436951,25.380249-20.436951h8.618652v79.786285
		c0,11.818359-0.475586,15.483765-14.988403,16.127686v3.031311h46.560181L1526.737183,531.349426z"/>
</g>
<g id="Group_330_00000164510991784054621250000017007094184282865285_" transform="translate(183.446 47.594)">
	<path id="Path_7780_00000121968996756943242560000006498825329350306441_" class="st0" d="M1750.906128,507.415497h-4.467773
		c-7.033569,16.107819-14.958618,20.902557-34.949829,20.902557c-23.775391,0-23.775391-0.158508-23.775391-6.706665v-39.566254
		l24.587769,0.317017c13.234985,0.158508,15.622437,2.387451,17.544189,15.15683h3.665405v-37.020294h-3.665405
		c-1.753418,11.332947-3.318604,15.15683-17.544189,15.15683h-24.597656v-35.425354c0-5.428741,1.931763-5.428741,5.270142-5.428741
		h21.536621c17.712646,0,21.873413,2.555878,24.260864,16.75177h3.962524l-0.495361-22.78476h-84.719727v3.04126
		c10.045166,0.782623,13.869019,1.753448,13.869019,14.354401v70.830902c0,12.283936-3.685181,13.720398-13.869019,14.35437
		v3.031372h86.185913L1750.906128,507.415497z"/>
</g>
<g id="Group_331_00000165918192951243855410000017889518257344003466_" transform="translate(183.446 47.594)">
	<path id="Path_7781_00000080890487960421257340000007801371195655119009_" class="st1" d="M1750.906128,507.415497h-4.467773
		c-7.033569,16.107819-14.958618,20.902557-34.949829,20.902557c-23.775391,0-23.775391-0.158508-23.775391-6.706665v-39.566254
		l24.587769,0.317017c13.234985,0.158508,15.622437,2.387451,17.544189,15.15683h3.665405v-37.020294h-3.665405
		c-1.753418,11.332947-3.318604,15.15683-17.544189,15.15683h-24.597656v-35.425354c0-5.428741,1.931763-5.428741,5.270142-5.428741
		h21.536621c17.712646,0,21.873413,2.555878,24.260864,16.75177h3.962524l-0.495361-22.78476h-84.719727v3.04126
		c10.045166,0.782623,13.869019,1.753448,13.869019,14.354401v70.830902c0,12.283936-3.685181,13.720398-13.869019,14.35437
		v3.031372h86.185913L1750.906128,507.415497z"/>
</g>
<g id="Group_332_00000175305401275007621750000007596639152113005471_" transform="translate(206.072 47.594)">
	<path id="Path_7782_00000004504589373688198410000009121799519697909937_" class="st0" d="M1889.388306,440.874084
		c0-3.18988,0-6.23114,7.489258-6.23114c20.119995,0,29.055542,4.309296,36.713257,11.174438
		c10.037109,9.304901,15.471802,22.554749,14.859619,36.227753c0,46.431427-39.249268,46.431427-49.462769,46.431427
		c-7.657715,0-9.56958-1.119446-9.56958-6.538269L1889.388306,440.874084z M1859.054932,534.341125h45.341675
		c48.828735,0,61.4198-31.284454,61.4198-52.503998c0.019775-35.663116-25.360474-53.098419-63.668579-53.098419h-43.092896v3.04126
		c12.303711,0.960938,14.057129,2.506348,14.057129,14.394043v70.820984c0,11.164551-1.921875,13.720398-14.057129,14.374207
		V534.341125z"/>
</g>
<g id="Group_333_00000067917850178119549590000000290974958607182252_" transform="translate(206.072 47.594)">
	<path id="Path_7783_00000160178622357840089020000013042096328438006193_" class="st1" d="M1889.388306,440.874084
		c0-3.18988,0-6.23114,7.489258-6.23114c20.119995,0,29.055542,4.309296,36.713257,11.174438
		c10.037109,9.304901,15.471802,22.554749,14.859619,36.227753c0,46.431427-39.249268,46.431427-49.462769,46.431427
		c-7.657715,0-9.56958-1.119446-9.56958-6.538269L1889.388306,440.874084z M1859.054932,534.341125h45.341675
		c48.828735,0,61.4198-31.284454,61.4198-52.503998c0.019775-35.663116-25.360474-53.098419-63.668579-53.098419h-43.092896v3.04126
		c12.303711,0.960938,14.057129,2.506348,14.057129,14.394043v70.820984c0,11.164551-1.921875,13.720398-14.057129,14.374207
		V534.341125z"/>
</g>
<g id="Group_334_00000116917931536155892700000012410361401043976882_" transform="translate(74.76 41.595)">
	<g id="Path_7784_00000062889203993108250550000003961689393495357857_">
		<path class="st0" d="M2104.637451,609.859314H689.554932v-16.435547h1415.08252V609.859314z M2104.637451,383.527252H689.554932
			v-16.435547h1415.08252V383.527252z"/>
	</g>
</g>
<g id="Group_335_00000010287076160303131820000008891109936903567233_" transform="translate(0.128 0.219)">
	<path id="Path_7785_00000153678292958924402170000012219556989564559541_" class="st2" d="M193.339523,12.740964
		c7.742325,2.454185,15.625641,4.439073,23.606995,5.943851c3.507889-0.007763,6.942093-1.007118,9.906418-2.882767
		c3.220871-2.080704,5.538101-5.300051,6.488708-9.014841h7.746826l3.447433,82.887001h-8.479889
		c-3.887436-14.355965-10.429504-27.856754-19.287811-39.803989c-14.615692-18.74402-37.339737-29.33408-61.09288-28.471046
		c-24.814484-0.483841-48.372368,10.894005-63.420891,30.630646c-16.352196,20.420437-24.52829,48.53484-24.52829,84.343246
		c-1.456696,28.589355,7.718048,56.706436,25.756691,78.934357c16.34211,19.149811,40.431763,29.932327,65.600311,29.362625
		c18.511703,0.167679,36.739548-4.555038,52.84082-13.690674c11.060089-6.546616,21.285507-14.410263,30.452332-23.418777
		l6.845337,6.845337c-8.576736,10.692825-18.871078,19.885773-30.462234,27.203033
		c-20.002304,13.014526-43.37146,19.900955-67.234863,19.81282c-35.508125,1.69458-69.988548-12.186569-94.418076-38.01091
		c-21.716167-23.969727-33.28009-55.433136-32.255302-87.760971c-0.9326-33.449921,11.292328-65.931152,34.048363-90.465408
		c24.115086-25.684063,58.160999-39.681725,93.367996-38.387379c13.902237,0.081565,27.726669,2.081725,41.081924,5.943851"/>
</g>
<g id="Group_336_00000017486180691842470210000007501543823927963795_" transform="translate(26.331 0.656)">
	<path id="Path_7786_00000023989471197100796120000007914766911413196714_" class="st0" d="M258.226044,248.215424
		c9.244995-0.121613,18.305511-2.604126,26.32135-7.211868c4.074829-3.487061,6.112274-12.198105,6.112274-26.133148V50.701237
		c1.113037-8.964256-0.993408-18.032513-5.943878-25.58828c-7.7742-5.331507-17.072357-7.988104-26.489746-7.568502v-6.855237
		h104.344299v6.855237c-9.572723-0.36783-19.05838,1.940987-27.391235,6.667023
		c-5.560699,6.664528-8.050079,15.36656-6.855255,23.963633V225.5c-0.158722,3.356995,0.522247,6.700592,1.981293,9.728104
		c2.280243,2.722656,5.641815,4.305634,9.193146,4.329102c2.753998,0.356628,5.646667,0.604294,8.668121,0.723175
		c3.021454,0.118866,8.915771,0.188217,17.2966,0.188217c32.796844,0,54.964142-2.704453,66.501801-8.113358
		c11.537689-5.408905,22.705505-19.221756,33.50351-41.438553h9.381378l-18.029694,63.965759H258.226044V248.215424z"/>
</g>
<g id="Group_337_00000022542326724518399760000007206152786705168552_" transform="translate(26.331 0.656)">
	<path id="Path_7787_00000067942188069397373970000001194628526762964402_" class="st1" d="M258.226044,248.215424
		c9.244995-0.121613,18.305511-2.604126,26.32135-7.211868c4.074829-3.487061,6.112274-12.198105,6.112274-26.133148V50.701237
		c1.113037-8.964256-0.993408-18.032513-5.943878-25.58828c-7.7742-5.331507-17.072357-7.988104-26.489746-7.568502v-6.855237
		h104.344299v6.855237c-9.572723-0.36783-19.05838,1.940987-27.391235,6.667023
		c-5.560699,6.664528-8.050079,15.36656-6.855255,23.963633V225.5c-0.158722,3.356995,0.522247,6.700592,1.981293,9.728104
		c2.280243,2.722656,5.641815,4.305634,9.193146,4.329102c2.753998,0.356628,5.646667,0.604294,8.668121,0.723175
		c3.021454,0.118866,8.915771,0.188217,17.2966,0.188217c32.796844,0,54.964142-2.704453,66.501801-8.113358
		c11.537689-5.408905,22.705505-19.221756,33.50351-41.438553h9.381378l-18.029694,63.965759H258.226044V248.215424z"/>
</g>
<g id="Group_338_00000031182998180882481790000001641225962070969768_" transform="translate(51.133 0.656)">
	<path id="Path_7788_00000059304735344038564070000018227968141060898459_" class="st0" d="M479.123047,248.215424
		c10.128571,0.183044,20.149139-2.105331,29.194214-6.667023c4.444641-3.487061,6.666992-12.379715,6.666992-26.677994V50.701237
		c0-13.578396-2.222351-22.28944-6.666992-26.133137c-8.82251-5.177227-18.98233-7.621502-29.194214-7.023645v-6.855237h109.208374
		v6.855237c-10.212219-0.600863-20.372864,1.843622-29.194275,7.023645c-4.451233,3.843697-6.67688,12.554741-6.67688,26.133137
		v164.169174c0,14.304871,2.225647,23.19754,6.67688,26.677994c9.044128,4.564331,19.065369,6.852859,29.194275,6.667023v6.667023
		H479.123047V248.215424z"/>
</g>
<g id="Group_339_00000167379916356342856010000008983148393025033644_" transform="translate(51.133 0.656)">
	<path id="Path_7789_00000127760195073994952220000000908150004315127706_" class="st1" d="M479.123047,248.215424
		c10.128571,0.183044,20.149139-2.105331,29.194214-6.667023c4.444641-3.487061,6.666992-12.379715,6.666992-26.677994V50.701237
		c0-13.578396-2.222351-22.28944-6.666992-26.133137c-8.82251-5.177227-18.98233-7.621502-29.194214-7.023645v-6.855237h109.208374
		v6.855237c-10.212219-0.600863-20.372864,1.843622-29.194275,7.023645c-4.451233,3.843697-6.67688,12.554741-6.67688,26.133137
		v164.169174c0,14.304871,2.225647,23.19754,6.67688,26.677994c9.044128,4.564331,19.065369,6.852859,29.194275,6.667023v6.667023
		H479.123047V248.215424z"/>
</g>
<g id="Group_340_00000152980641570442082880000018401366883804414597_" transform="translate(65.731 0.219)">
	<path id="Path_7790_00000011720735299245663480000014847211564016374681_" class="st2" d="M777.627319,12.740964
		c7.74231,2.454185,15.625671,4.439073,23.606995,5.943851c3.507874-0.007763,6.942139-1.007118,9.906433-2.882767
		c3.220886-2.080704,5.538086-5.300051,6.488708-9.014841h7.746826l3.447449,82.887001h-8.479919
		c-3.895081-14.353088-10.436523-27.852512-19.287781-39.803989c-14.615723-18.74402-37.339722-29.33408-61.092896-28.471046
		c-24.815186-0.487061-48.374451,10.891453-63.420898,30.630646c-16.345581,20.420437-24.518372,48.53484-24.518372,84.343246
		c-1.462402,28.590118,7.713013,56.709167,25.756653,78.934357c16.34436,19.152542,40.438232,29.935318,65.610229,29.362625
		c18.504944,0.163712,36.725403-4.558838,52.821045-13.690674c11.060059-6.546616,21.285461-14.410263,30.452332-23.418777
		l6.845337,6.845337c-8.574341,10.698761-18.873047,19.892563-30.472168,27.203033
		c-19.994202,13.016113-43.357544,19.902878-67.215027,19.81282c-35.511292,1.696198-69.995422-12.184982-94.427979-38.01091
		c-21.716187-23.969727-33.28009-55.433136-32.25531-87.760971c-0.940063-33.451164,11.285889-65.935135,34.04834-90.465408
		c24.112854-25.687353,58.160278-39.685658,93.367981-38.387379c13.902283,0.080934,27.726807,2.081105,41.08197,5.943851"/>
</g>
<g id="Group_341_00000053508558337022175150000015337613046362163627_" transform="translate(121.83 0.128)">
	<path id="Path_7791_00000098206712940463713990000007006255202020246405_" class="st0" d="M1117.250122,181.161819
		c5.003418,14.368225,12.435425,27.771286,21.972412,39.625671c13.277466,16.52446,33.417969,26.02298,54.614136,25.756699
		c11.189575,0.206299,22.05188-3.779602,30.452271-11.174454c8.83374-7.871399,13.611938-19.330414,12.987305-31.145767
		c0.089722-11.778595-4.591553-23.092041-12.977417-31.363724c-11.051147-9.583786-22.993164-18.089157-35.663086-25.400055
		l-31.571777-19.644432c-8.330566-5.056717-15.966675-11.177597-22.715332-18.208
		c-9.937378-10.391045-15.541626-24.178413-15.671997-38.555771c-0.484985-17.393478,6.2323-34.215557,18.564697-46.490822
		c13.152588-12.683246,30.942139-19.399963,49.19519-18.574535c10.376953,0.386554,20.616211,2.506042,30.293823,6.270757
		c6.599243,2.599819,13.397217,4.663738,20.328003,6.171692c3.452515,0.416426,6.904785-0.778152,9.361572-3.239396
		c2.060791-2.716062,3.48291-5.8617,4.160645-9.203072h7.568604l8.113281,78.577713h-8.796875
		c-3.460938-19.445366-13.759155-37.013016-29.035767-49.532082c-11.292725-8.69956-25.040405-13.618322-39.288818-14.057217
		c-9.605591-0.160852-18.967651,3.026411-26.479858,9.014839c-7.48584,5.946991-11.646118,15.137821-11.174438,24.686802
		c-0.217407,8.89925,2.862793,17.564735,8.648315,24.33017c7.795654,8.475754,16.850586,15.699738,26.846436,21.417671
		l32.443481,20.010971c16.092163,9.036629,30.584717,20.664131,42.894775,34.414894
		c8.223389,10.740448,12.542114,23.962112,12.244385,37.485886c0.313843,18.63736-7.750977,36.43222-21.972412,48.482025
		c-15.494873,13.30751-35.453369,20.255295-55.862305,19.446304c-12.238892-0.143005-24.36731-2.336304-35.881104-6.488708
		c-6.894165-2.748596-14.005127-4.918976-21.259155-6.488708c-3.448975-0.415222-6.844971,1.109375-8.82666,3.96257
		c-1.444824,2.635651-2.423462,5.501114-2.8927,8.469986h-8.093506l-10.996094-78.557907H1117.250122z"/>
</g>
<g id="Group_342_00000036239385816276759240000013534580959793638806_" transform="translate(121.83 0.128)">
	<path id="Path_7792_00000176724246585446100510000005039513479121620111_" class="st1" d="M1117.250122,181.161819
		c5.003418,14.368225,12.435425,27.771286,21.972412,39.625671c13.277466,16.52446,33.417969,26.02298,54.614136,25.756699
		c11.189575,0.206299,22.05188-3.779602,30.452271-11.174454c8.83374-7.871399,13.611938-19.330414,12.987305-31.145767
		c0.089722-11.778595-4.591553-23.092041-12.977417-31.363724c-11.051147-9.583786-22.993164-18.089157-35.663086-25.400055
		l-31.571777-19.644432c-8.330566-5.056717-15.966675-11.177597-22.715332-18.208
		c-9.937378-10.391045-15.541626-24.178413-15.671997-38.555771c-0.484985-17.393478,6.2323-34.215557,18.564697-46.490822
		c13.152588-12.683246,30.942139-19.399963,49.19519-18.574535c10.376953,0.386554,20.616211,2.506042,30.293823,6.270757
		c6.599243,2.599819,13.397217,4.663738,20.328003,6.171692c3.452515,0.416426,6.904785-0.778152,9.361572-3.239396
		c2.060791-2.716062,3.48291-5.8617,4.160645-9.203072h7.568604l8.113281,78.577713h-8.796875
		c-3.460938-19.445366-13.759155-37.013016-29.035767-49.532082c-11.292725-8.69956-25.040405-13.618322-39.288818-14.057217
		c-9.605591-0.160852-18.967651,3.026411-26.479858,9.014839c-7.48584,5.946991-11.646118,15.137821-11.174438,24.686802
		c-0.217407,8.89925,2.862793,17.564735,8.648315,24.33017c7.795654,8.475754,16.850586,15.699738,26.846436,21.417671
		l32.443481,20.010971c16.092163,9.036629,30.584717,20.664131,42.894775,34.414894
		c8.223389,10.740448,12.542114,23.962112,12.244385,37.485886c0.313843,18.63736-7.750977,36.43222-21.972412,48.482025
		c-15.494873,13.30751-35.453369,20.255295-55.862305,19.446304c-12.238892-0.143005-24.36731-2.336304-35.881104-6.488708
		c-6.894165-2.748596-14.005127-4.918976-21.259155-6.488708c-3.448975-0.415222-6.844971,1.109375-8.82666,3.96257
		c-1.444824,2.635651-2.423462,5.501114-2.8927,8.469986h-8.093506l-10.996094-78.557907H1117.250122z"/>
</g>
<g id="Group_343_00000159432720698952808070000012145140600659268537_" transform="translate(92.188 0.655)">
	<path id="Path_7793_00000178884248028658290510000009602392958512938126_" class="st2" d="M950.82428,118.977272l3.714905-3.764435
		l70.98938-68.661392c8.322876-8.839531,17.779907-16.53772,28.12439-22.893732
		c8.812256-3.99835,18.27124-6.380716,27.926147-7.033556v-5.943856h-96.607361v6.855247
		c6.274963-0.238352,12.546509,0.554794,18.564636,2.347826c4.245361,1.262817,7.029114,5.322823,6.67688,9.738007
		c0,6.960907-12.927856,22.758347-38.78363,47.392307c-14.397278,13.571793-32.945435,30.029655-55.644348,49.373589V50.682423
		c-1.140198-9.127617,1.101013-18.356846,6.300476-25.944908c8.31189-5.313536,18.100891-7.839731,27.946045-7.211868v-6.855246
		H844.776062v6.855246c9.62262-0.448303,19.142517,2.140482,27.212952,7.400091
		c5.140564,7.539728,7.320374,16.710279,6.122192,25.756685v159.849976c1.183044,10.222488-0.696045,20.566055-5.399048,29.719254
		c-3.612488,4.088058-12.924561,6.729782-27.936096,7.92514v6.676926h104.334412v-6.676926
		c-9.553955,0.11412-18.959595-2.368256-27.212891-7.182159c-4.07489-3.718201-6.115601-12.425949-6.122192-26.123215v-66.690018
		l11.689575-9.827164c3.58551,1.46788,6.97876,3.367416,10.104553,5.656555
		c30.462219,21.96254,142.067932,201.100296,280.658752,191.401901c41.042236-2.862946,72.187988-16.840912,75.288696-26.687897
		c-24.300415,12.947693-67.49231,15.969177-100.183594,7.023682C1070.939575,281.987396,982.445618,119.442879,950.82428,118.977272
		"/>
</g>
<g id="Group_344_00000031907116576631171290000015151958386386060966_" transform="translate(160.738 0.794)">
	<path id="Path_7794_00000089538606799835260960000010073693698373268893_" class="st0" d="M2562.363281,252.812698h99.747803
		v-6.60759c-9.631104,0.24617-19.152832-2.086395-27.57959-6.75618c-4.134277-3.460632-6.197998-11.887695-6.191406-25.281174
		v-64.748352c2.89917,0,7.340576,0.089157,13.323975,0.267487c5.983643,0.178314,10.887207,0.264175,14.711182,0.257553
		c23.310303,0.858276,46.397461-4.809692,66.660156-16.365387c17.977051-11.276672,28.231934-31.580513,26.638428-52.741768
		c0.333252-18.502529-8.703857-35.920937-24.022949-46.302601c-16.0354-11.715994-39.127197-17.57399-69.275635-17.57399h-94.011963
		v6.60758c8.851074-0.270067,17.547852,2.359852,24.766113,7.489256c4.687012,7.274139,6.6875,15.956333,5.656494,24.548111
		v154.431122c1.083984,9.675049-0.667969,19.456573-5.04248,28.154037c-7.28833,5.540604-16.270508,8.386459-25.419678,8.053925
		L2562.363281,252.812698z M2710.830811,81.718941c0,23.207436-8.522949,39.057716-25.568604,47.550819
		c-12.197266,5.173218-25.399902,7.542953-38.63501,6.934479c-1.872314,0-3.77417-0.059433-5.755615-0.178299
		c-1.981201-0.118881-6.141846-0.465607-12.531494-1.040176V42.043747c-0.478516-3.430595,0.438477-6.909786,2.545898-9.658764
		c4.201904-1.961924,8.867432-2.713226,13.472656-2.169504c13.083008-0.428991,26.115479,1.819513,38.29834,6.60758
		c18.209717,7.187656,29.628906,25.382305,28.183594,44.905785 M2279.128906,16.980499v6.607578
		c9.229248-0.232124,18.327881,2.218008,26.192627,7.05337c5.057129,7.283209,7.199463,16.198168,6.003174,24.98398v111.397675
		c-0.808594,18.424622,3.084717,36.751999,11.313232,53.256912c13.921631,25.063232,40.147217,37.611374,78.676758,37.644394
		c38.965088,0,65.421875-12.706635,79.370117-38.119904c8.424316-17.995178,12.308594-37.781158,11.313232-57.625626V69.365623
		c0-18.683502,2.110107-30.607529,6.330078-35.772079c7.51001-6.513954,17.133057-10.073732,27.074219-10.015385v-6.60758
		h-82.490723v6.60758c9.620605-0.003157,18.953369,3.282513,26.450195,9.312038
		c4.623047,4.933388,6.93457,17.088577,6.93457,36.465523v92.76371c1.02124,17.253082-1.832275,34.515991-8.351074,50.522736
		c-9.992432,19.489227-29.541016,29.237137-58.645996,29.243744c-26.582275,0-44.625244-9.513458-54.128662-28.54039
		c-5.753906-13.819855-8.369385-28.744324-7.657715-43.697205V55.615528c-1.21875-8.851284,0.953857-17.836082,6.08252-25.152393
		c8.024658-4.826914,17.280029-7.21562,26.638428-6.875057v-6.607578H2279.128906z M2002.492188,134.975845
		c-1.235229,32.95755,10.876099,65.019974,33.592651,88.929916c21.735229,22.50563,51.938599,34.824371,83.213989,33.939392
		c29.608643,0.614624,58.281982-10.38327,79.885254-30.640549c25.065186-23.964127,38.523682-57.608902,36.901367-92.248581
		c1.562744-34.13063-11.393799-67.328064-35.663086-91.376816c-21.690918-21.029089-50.932373-32.443592-81.133545-31.670807
		c-30.109619-0.750093-59.26416,10.596293-80.945435,31.502415c-24.356689,24.077381-37.38208,57.340656-35.851318,91.555115
		 M2042.870605,134.965927c0-37.591553,7.406738-65.352646,22.220215-83.283264
		c12.875-16.978966,32.96875-26.935909,54.277344-26.895927c20.890869,0.089146,40.62085,9.622692,53.672852,25.935005
		c15.104004,17.289997,22.656006,45.358189,22.656006,84.204559c0,38.410492-7.462891,66.346588-22.388428,83.808304
		c-13.010742,16.542679-32.894531,26.197968-53.94043,26.192566c-21.331299,0.089813-41.465088-9.848679-54.366455-26.836472
		c-14.760742-17.924026-22.137695-45.628967-22.130981-83.114853 M1733.16626,252.862228h99.064209v-6.60759
		c-9.213501,0.124313-18.280762-2.310547-26.192505-7.033554c-4.008789-3.526688-6.01001-11.881088-6.003296-25.063232v-70.256317
		l15.642212-0.87178l89.157837,109.832474h57.457153v-6.60759c-6.071533-0.403366-11.995605-2.048767-17.405518-4.834335
		c-5.235229-3.154648-9.840332-7.252502-13.581787-12.085831l-73.446167-90.475327
		c17.102295-1.883972,33.374268-8.368103,47.085205-18.762749c11.841064-10.15818,18.248169-25.270775,17.316406-40.844154
		c1.082764-24.986118-15.047485-47.477699-39.061035-54.465504c-16.505981-5.671522-33.898804-8.322565-51.344971-7.82608
		h-98.677734v6.60758c8.904419-0.276056,17.661133,2.322119,24.973999,7.409992
		c4.7052,7.295961,6.706665,16.009466,5.656494,24.627359v154.431183c1.093506,9.704178-0.658447,19.516922-5.042358,28.243195
		c-7.385254,5.464279-16.407349,8.25856-25.588257,7.92514L1733.16626,252.862228z M1800.004883,130.676453V42.925404
		c0-5.329636,1.129395-8.71764,3.388062-10.163994c5.964478-2.000471,12.279663-2.739265,18.5448-2.169504
		c12.296875-0.479385,24.559937,1.588087,36.019775,6.072641c16.704834,7.104218,26.957642,24.133728,25.419922,42.221165
		c1.386963,19.292564-10.19519,37.163361-28.371948,43.776474c-17.807129,5.506714-36.362427,8.210464-55.000488,8.014297
		 M1578.705566,12.790099c-34.955811-1.385324-68.688354,12.988381-91.901855,39.160084
		c-20.909058,23.424046-32.162476,53.902752-31.492554,85.294266c-1.403809,34.527634,13.168213,67.778687,39.506836,90.148407
		c24.638062,20.571365,55.954956,31.410889,88.038208,30.472107c20.134155-0.21701,40.095093-3.747986,59.081909-10.451263
		c20.473267-6.960907,30.709839-12.52832,30.709839-16.702225v-70.147339c-1.155396-8.368622,1.531494-16.811325,7.310913-22.972992
		c5.357666-3.011536,11.430176-4.517685,17.574097-4.358826v-6.607574h-90.861694v6.607574
		c8.924683-0.355606,17.76709,1.829224,25.499146,6.300476c3.889893,3.387985,5.831543,11.973572,5.824951,25.756683v56.793503
		c0.233154,3.27681-0.899902,6.504059-3.130493,8.915771c-4.804199,3.339691-10.174683,5.779877-15.85022,7.201965
		c-5.383179,1.776169-10.91748,3.056122-16.533813,3.823883c-5.012207,0.747574-10.069702,1.151382-15.136963,1.208588
		c-24.347412,0.459366-47.703735-9.633057-64.055054-27.678543c-17.290039-18.452347-25.935059-44.096771-25.934937-76.933243
		c-0.000122-39.803978,8.674683-68.380692,26.024048-85.730148c15.654541-16.619316,37.479126-26.033201,60.310303-26.01425
		c20.625977-0.776281,40.59314,7.336851,54.832031,22.279543c9.616699,11.545521,17.261597,24.599358,22.626221,38.635025h8.182739
		l-2.783691-75.021301h-7.83606c-1.179932,3.20973-3.050049,6.121374-5.478149,8.529427
		c-3.149902,2.283365-7.02417,3.339993-10.897095,2.971918c-7.783203-1.373175-15.459839-3.293171-22.973022-5.745722
		c-13.241943-3.815391-26.95459-5.749557-40.735107-5.745722"/>
</g>
<g id="Group_345_00000108298378665084389610000015326751192513328056_" transform="translate(160.738 0.794)">
	<path id="Path_7795_00000113314156517025120360000007245925730736430502_" class="st1" d="M2562.363281,252.812698h99.747803
		v-6.60759c-9.631104,0.24617-19.152832-2.086395-27.57959-6.75618c-4.134277-3.460632-6.197998-11.887695-6.191406-25.281174
		v-64.748352c2.89917,0,7.340576,0.089157,13.323975,0.267487c5.983643,0.178314,10.887207,0.264175,14.711182,0.257553
		c23.310303,0.858276,46.397461-4.809692,66.660156-16.365387c17.977051-11.276672,28.231934-31.580513,26.638428-52.741768
		c0.333252-18.502529-8.703857-35.920937-24.022949-46.302601c-16.0354-11.715994-39.127197-17.57399-69.275635-17.57399h-94.011963
		v6.60758c8.851074-0.270067,17.547852,2.359852,24.766113,7.489256c4.687012,7.274139,6.6875,15.956333,5.656494,24.548111
		v154.431122c1.083984,9.675049-0.667969,19.456573-5.04248,28.154037c-7.28833,5.540604-16.270508,8.386459-25.419678,8.053925
		L2562.363281,252.812698z M2710.830811,81.718941c0,23.207436-8.522949,39.057716-25.568604,47.550819
		c-12.197266,5.173218-25.399902,7.542953-38.63501,6.934479c-1.872314,0-3.77417-0.059433-5.755615-0.178299
		c-1.981201-0.118881-6.141846-0.465607-12.531494-1.040176V42.043747c-0.478516-3.430595,0.438477-6.909786,2.545898-9.658764
		c4.201904-1.961924,8.867432-2.713226,13.472656-2.169504c13.083008-0.428991,26.115479,1.819513,38.29834,6.60758
		C2700.858887,44.012924,2712.272949,62.201511,2710.830811,81.718941z M2279.118896,16.970598v6.60758
		c9.229492-0.232126,18.327881,2.218006,26.192627,7.053368c5.057373,7.283207,7.199463,16.19817,6.003174,24.983982v111.397675
		c-0.808594,18.424622,3.084717,36.751999,11.313232,53.256912c13.921875,25.063232,40.147461,37.611359,78.676758,37.644379
		c38.965332,0,65.421875-12.706619,79.370117-38.119888c8.424316-17.995178,12.308838-37.781158,11.313232-57.625626V69.365623
		c0-18.683502,2.110107-30.607529,6.330322-35.772079c7.509766-6.513954,17.132812-10.073732,27.074219-10.015385v-6.60758
		h-82.490723v6.60758c9.620605-0.003157,18.953125,3.282513,26.449951,9.312038
		c4.623047,4.933388,6.93457,17.088577,6.93457,36.465523v92.76371c1.02124,17.253082-1.832275,34.515991-8.351074,50.522736
		c-9.992432,19.489227-29.541016,29.237137-58.645996,29.243744c-26.582275,0-44.625244-9.513458-54.128662-28.54039
		c-5.753906-13.819855-8.369385-28.744324-7.657715-43.697205V55.615528c-1.21875-8.851284,0.954102-17.836082,6.08252-25.152393
		c8.024658-4.826914,17.280029-7.21562,26.638428-6.875057v-6.607578L2279.118896,16.970598z M2002.492188,134.975845
		c-1.235229,32.95755,10.876099,65.019974,33.592651,88.929916c21.735229,22.50563,51.938599,34.824371,83.213989,33.939392
		c29.608643,0.614624,58.281982-10.38327,79.885254-30.640549c25.065186-23.964127,38.523682-57.608902,36.901367-92.248581
		c1.562744-34.13063-11.393799-67.328064-35.663086-91.376816c-21.690918-21.029089-50.932373-32.443592-81.133545-31.670807
		c-30.109619-0.750093-59.26416,10.596293-80.945435,31.502415
		C2013.984131,67.490562,2000.958618,100.758011,2002.492188,134.975845z M2042.870728,134.975845
		c0-37.591553,7.406616-65.352631,22.220093-83.283257c12.873047-16.98267,32.967041-26.943432,54.277344-26.905849
		c20.890869,0.089146,40.62085,9.622692,53.672852,25.935005c15.104004,17.289997,22.656006,45.358189,22.656006,84.204559
		c0,38.410492-7.462891,66.346588-22.388428,83.808304c-13.010742,16.542679-32.894531,26.197968-53.94043,26.192566
		c-21.331299,0.089813-41.465088-9.848679-54.366455-26.836472
		C2050.240967,200.173279,2042.864014,172.468338,2042.870728,134.975845z M1733.166382,252.862228h99.064209v-6.60759
		c-9.213501,0.124313-18.280762-2.310547-26.192505-7.033554c-4.008911-3.526688-6.01001-11.881088-6.003418-25.063232v-70.256317
		l15.642334-0.87178l89.157715,109.832474h57.457275v-6.60759c-6.071533-0.403381-11.995728-2.048782-17.405518-4.834335
		c-5.235229-3.154648-9.840332-7.252502-13.581787-12.085831l-73.446167-90.475327
		c17.102295-1.883972,33.374268-8.368103,47.085205-18.762749c11.841064-10.15818,18.248169-25.270775,17.316406-40.844154
		c1.082764-24.986176-15.047607-47.477757-39.061157-54.465504c-16.505981-5.671522-33.898804-8.322565-51.344971-7.82608
		h-98.677734v6.60758c8.904419-0.276056,17.661133,2.322119,24.973999,7.409992
		c4.7052,7.295961,6.706665,16.009466,5.656494,24.627359v154.431183c1.093506,9.704178-0.658447,19.516922-5.042358,28.243195
		c-7.385254,5.464279-16.407349,8.25856-25.588257,7.92514L1733.166382,252.862228z M1800.005005,130.676453V42.925404
		c0-5.329636,1.129272-8.71764,3.388062-10.163994c5.964478-2.000471,12.279663-2.739265,18.5448-2.169504
		c12.296753-0.479385,24.559814,1.588087,36.019775,6.072641c16.704712,7.104218,26.957642,24.133728,25.419922,42.221165
		c1.386963,19.292564-10.195312,37.163361-28.37207,43.776474c-17.809814,5.489944-36.36499,8.176971-55.00061,7.964737
		L1800.005005,130.676453z M1578.705566,12.790081c-34.955811-1.385344-68.688354,12.98838-91.901855,39.160065
		c-20.909058,23.424046-32.162476,53.902752-31.492554,85.29425c-1.403809,34.527634,13.168213,67.778702,39.506836,90.148422
		c24.638062,20.571365,55.954956,31.410889,88.038208,30.472137c20.134155-0.21701,40.095093-3.747986,59.081909-10.451263
		c20.473267-6.960907,30.709839-12.52832,30.709839-16.702225v-70.147339c-1.155396-8.368622,1.531494-16.811325,7.310913-22.972992
		c5.357666-3.011536,11.430176-4.517685,17.574097-4.358826v-6.607574h-90.861694v6.607574
		c8.924683-0.355606,17.76709,1.829224,25.499146,6.300476c3.889893,3.387985,5.831543,11.973572,5.824951,25.756683v56.793503
		c0.233154,3.27681-0.899902,6.504059-3.130493,8.915771c-4.804199,3.339691-10.174683,5.779877-15.85022,7.201965
		c-5.383179,1.776169-10.91748,3.056122-16.533813,3.823883c-5.012207,0.747574-10.069702,1.151382-15.136963,1.208588
		c-24.347412,0.459366-47.703735-9.633057-64.055054-27.678543c-17.290039-18.452347-25.935059-44.096771-25.934937-76.933243
		c-0.000122-39.803978,8.674683-68.380692,26.024048-85.730148c15.654541-16.619316,37.479126-26.033201,60.310303-26.01425
		c20.625977-0.776281,40.59314,7.336851,54.832031,22.279543c9.616699,11.545521,17.261597,24.599358,22.626221,38.635025h8.182739
		l-2.783691-75.021301h-7.83606c-1.179932,3.20973-3.050049,6.121374-5.478149,8.529427
		c-3.149902,2.283365-7.02417,3.339993-10.897095,2.971918c-7.783203-1.373175-15.459839-3.293171-22.973022-5.745722
		c-13.216797-3.804677-26.902222-5.735443-40.655762-5.735802H1578.705566z"/>
</g>
</svg>
