<?xml version="1.0" standalone="no"?>
<!DOCTYPE svg PUBLIC "-//W3C//DTD SVG 20010904//EN"
 "http://www.w3.org/TR/2001/REC-SVG-20010904/DTD/svg10.dtd">
<svg version="1.0" xmlns="http://www.w3.org/2000/svg"
 width="16.000000pt" height="16.000000pt" viewBox="0 0 16.000000 16.000000"
 preserveAspectRatio="xMidYMid meet">
<metadata>
Created by potrace 1.11, written by Peter Selinger 2001-2013
</metadata>
<g transform="translate(0.000000,16.000000) scale(0.002286,-0.002286)"
fill="#000000" stroke="none">
<path d="M3260 6924 c-19 -2 -82 -9 -140 -15 -984 -104 -1899 -664 -2457
-1504 -296 -445 -478 -944 -549 -1500 -23 -172 -26 -605 -6 -765 71 -584 251
-1080 555 -1540 735 -1108 2025 -1686 3337 -1494 1252 182 2318 1077 2725
2289 132 390 180 689 180 1110 -1 286 -14 430 -66 686 -269 1345 -1328 2405
-2669 2673 -226 45 -352 58 -620 61 -140 2 -271 1 -290 -1z m560 -235 c527
-48 1073 -254 1520 -572 759 -540 1248 -1397 1331 -2328 19 -211 7 -586 -25
-781 -92 -570 -315 -1074 -672 -1523 -108 -136 -346 -374 -479 -482 -746 -599
-1677 -829 -2616 -647 -427 82 -854 267 -1219 527 -753 536 -1245 1391 -1330
2312 -13 141 -13 469 0 610 77 833 489 1619 1130 2157 488 411 1115 674 1730
728 234 20 405 20 630 -1z"/>
<path d="M3310 6520 c-1065 -82 -2024 -736 -2500 -1705 -215 -436 -310 -835
-311 -1300 -1 -659 207 -1268 624 -1824 119 -160 378 -426 537 -551 716 -568
1608 -778 2480 -584 171 38 419 123 588 202 961 445 1633 1366 1757 2407 18
153 21 485 5 630 -50 463 -200 893 -450 1293 -449 719 -1186 1231 -1997 1387
-217 42 -525 61 -733 45z m343 -674 c161 -118 461 -353 465 -365 1 -4 -53 -54
-120 -111 -68 -58 -201 -174 -296 -258 -95 -85 -178 -152 -185 -149 -15 6
-601 506 -604 516 -3 9 578 469 595 471 2 0 68 -47 145 -104z m-838 -1238
c193 -184 425 -412 518 -507 l167 -172 393 379 c215 208 468 451 562 540 l170
162 193 -193 c106 -105 220 -222 252 -258 l60 -66 -202 -219 c-261 -283 -815
-858 -1150 -1192 l-264 -262 -380 382 c-401 405 -759 775 -1014 1048 -85 91
-171 184 -193 206 l-39 42 253 256 252 257 36 -34 c20 -18 194 -184 386 -369z
m2926 -816 c80 -108 160 -218 178 -245 l32 -47 -127 -173 c-586 -791 -1321
-1523 -2141 -2130 l-172 -128 -173 128 c-804 594 -1536 1319 -2131 2111 l-138
182 160 213 c88 116 172 227 188 246 l28 33 115 -138 c511 -616 1152 -1274
1809 -1857 l153 -137 142 127 c681 612 1363 1320 1826 1896 52 64 97 117 100
117 3 -1 71 -89 151 -198z"/>
</g>
</svg>
