<?xml version="1.0" standalone="no"?>
<!DOCTYPE svg PUBLIC "-//W3C//DTD SVG 20010904//EN"
 "http://www.w3.org/TR/2001/REC-SVG-20010904/DTD/svg10.dtd">
<svg version="1.0" xmlns="http://www.w3.org/2000/svg"
 width="700.000000pt" height="700.000000pt" viewBox="0 0 700.000000 700.000000"
 preserveAspectRatio="xMidYMid meet">
<metadata>
Created by potrace 1.14, written by Peter Selinger 2001-2017
</metadata>
<g transform="translate(0.000000,700.000000) scale(0.100000,-0.100000)"
fill="#000000" stroke="none">
<path d="M4357 5534 c-1 -1 -69 -5 -152 -8 -161 -8 -225 -12 -320 -21 -33 -3
-87 -8 -120 -11 -126 -10 -158 -14 -380 -45 -77 -11 -158 -22 -180 -25 -22 -3
-56 -9 -75 -14 -19 -5 -57 -12 -85 -16 -27 -3 -60 -10 -72 -15 -13 -5 -23 -7
-23 -4 0 2 -15 -1 -32 -6 -18 -5 -49 -12 -68 -15 -19 -3 -38 -8 -41 -10 -3 -2
-19 -6 -35 -9 -16 -3 -56 -12 -89 -20 -33 -9 -69 -17 -80 -20 -11 -2 -87 -23
-170 -46 -659 -180 -1307 -456 -1815 -775 -110 -69 -144 -102 -133 -130 3 -8
36 8 101 51 258 168 614 337 977 462 111 38 393 126 444 139 9 2 57 15 106 29
78 21 311 75 385 88 14 3 53 10 87 17 231 42 506 85 668 105 22 2 56 7 75 9
272 39 1006 52 1205 21 17 -3 57 -7 90 -10 74 -6 131 -14 240 -31 17 -3 41 -7
55 -9 149 -19 424 -93 580 -155 267 -106 366 -165 490 -290 141 -143 194 -254
193 -405 -1 -168 -48 -293 -171 -450 -127 -164 -298 -310 -582 -497 -260 -172
-493 -261 -1265 -482 -88 -26 -189 -55 -225 -66 -108 -32 -563 -148 -784 -200
-94 -22 -171 -38 -173 -37 -1 2 46 23 105 47 59 24 125 51 147 61 41 19 433
173 540 214 33 12 179 71 325 130 146 59 282 115 303 123 20 8 37 18 37 23 0
4 -201 7 -446 7 l-446 1 -51 -47 c-28 -26 -61 -56 -73 -67 -24 -23 -217 -200
-250 -230 -72 -65 -217 -199 -277 -256 l-70 -65 396 0 395 1 -5 -25 c-2 -14
-6 -33 -9 -42 -3 -9 -7 -27 -9 -40 -23 -118 -81 -355 -89 -365 -12 -12 -155
-59 -209 -68 -17 -3 -57 -10 -87 -15 -125 -22 -366 -30 -510 -16 -277 25 -490
164 -575 374 -44 110 -55 185 -51 347 2 83 7 164 10 180 10 49 16 78 21 106
25 139 117 356 204 482 200 289 524 457 891 460 156 2 220 -6 317 -38 161 -54
254 -162 266 -307 1 -10 6 -19 12 -20 5 -1 328 -2 717 -3 l706 -2 8 36 c4 20
8 83 9 141 5 281 -137 489 -430 630 -124 60 -276 110 -406 135 -13 3 -58 11
-99 19 -41 9 -100 18 -130 21 -30 4 -84 10 -120 15 -143 19 -291 25 -645 25
-334 -1 -448 -5 -555 -20 -19 -3 -57 -8 -85 -10 -27 -3 -66 -7 -85 -10 -19 -4
-44 -7 -55 -9 -83 -13 -220 -42 -325 -68 -644 -159 -1113 -498 -1383 -998 -59
-110 -130 -282 -158 -385 -72 -267 -93 -404 -92 -605 1 -405 164 -697 498
-891 111 -65 314 -143 451 -174 81 -18 218 -44 259 -49 28 -4 61 -8 75 -11
183 -32 853 -38 1155 -11 22 2 81 7 130 11 50 3 108 8 130 10 22 2 67 7 100
10 74 7 162 16 195 20 14 2 52 6 85 10 33 3 67 8 75 10 8 2 44 7 80 10 36 4
72 9 82 10 9 2 38 6 65 10 26 4 59 9 73 11 14 2 45 7 70 10 25 3 166 28 313
55 147 27 270 49 272 49 2 0 6 15 10 33 4 17 15 68 25 112 19 81 119 524 125
558 3 10 6 26 9 35 3 9 8 31 10 47 3 17 21 98 40 181 19 83 37 162 40 175 2
13 21 96 41 184 20 88 38 168 40 178 9 42 17 55 38 62 12 4 24 8 27 10 3 1 25
10 50 21 59 24 269 132 345 178 273 164 589 373 651 431 6 5 38 32 70 59 61
52 224 212 259 256 64 78 149 249 161 320 9 57 10 192 1 245 -42 265 -330 517
-747 655 -108 36 -354 101 -430 115 -73 13 -223 36 -266 41 -27 3 -60 7 -73 9
-13 2 -63 7 -110 11 -47 3 -97 8 -111 10 -51 8 -615 24 -623 18z"/>
</g>
</svg>
