<?xml version="1.0" encoding="UTF-8"?>
<svg width="111px" height="109px" viewBox="0 0 111 109" version="1.1" xmlns="http://www.w3.org/2000/svg" xmlns:xlink="http://www.w3.org/1999/xlink">
    <title>B6526CF1-D8E7-4FDB-83BB-A13214271B7A</title>
    <g id="Pages" stroke="none" stroke-width="1" fill="none" fill-rule="evenodd">
        <g id="Major-Cities" transform="translate(-1.000000, -70.000000)" fill="#3D7FE0">
            <g id="Module/Banner/Content_page" transform="translate(-1.000000, 0.000000)">
                <g id="Module/Navigation" transform="translate(0.994088, 0.000000)">
                    <g id="Atom/Logo/Hammerson" transform="translate(1.500000, 70.000000)">
                        <path d="M66.9565217,64.6813187 L66.9565217,109 L26.3043478,109 L26.3043478,64.6813187 L66.9565217,64.6813187 Z M104.183944,98.8390305 L104.183944,102.195104 L103.000249,102.195104 L103.000249,102.232455 C104.111308,103.005763 104.487939,103.946459 104.487939,105.255134 C104.487939,107.799164 102.928958,108.814563 100.669175,108.814563 L94.9874361,108.814563 L94.9874361,105.45849 L99.4679932,105.45849 C99.5622469,105.45849 99.6640977,105.460174 99.7708357,105.46114 L99.9900249,105.461403 C100.849073,105.453294 101.889189,105.308937 101.889189,103.946459 C101.889189,102.582449 100.903224,102.195104 99.7558465,102.195104 L94.9874361,102.195104 L94.9874361,98.8390305 L104.183944,98.8390305 Z M99.576409,86.6517541 C102.713202,86.6517541 104.488746,89.3064549 104.488746,92.3485014 C104.488746,95.3905478 102.713202,98.046632 99.576409,98.046632 C96.4571019,98.046632 94.6829035,95.3905478 94.6829035,92.3485014 C94.6829035,89.3244388 96.4396155,86.6517541 99.576409,86.6517541 Z M99.576409,90.1918163 C98.4115448,90.1918163 97.5143573,90.9844915 97.5143573,92.3485014 C97.5143573,93.7138947 98.4115448,94.5065698 99.576409,94.5065698 C100.7063,94.5065698 101.655947,93.7138947 101.655947,92.3485014 C101.655947,90.9844915 100.7063,90.1918163 99.576409,90.1918163 Z M95.740159,77.857902 L98.017428,79.0738906 C97.5506753,79.7572789 97.0839226,80.8999485 97.0839226,81.7299748 C97.0839226,82.1532882 97.2816535,82.7799581 97.7833791,82.7799581 C98.5016671,82.7799581 98.5366399,81.7299748 98.8056617,80.6786081 C99.0746834,79.6272414 99.576409,78.5772582 101.225512,78.5772582 C103.48395,78.5772582 104.488746,80.6786081 104.488746,82.7439902 C104.488746,83.8133408 104.327333,84.8826914 103.896898,85.8593557 L101.81736,84.73467 C102.086382,84.2186703 102.265281,83.4993142 102.265281,82.9279794 C102.265281,82.5406338 102.103868,81.8766128 101.638461,81.8766128 C101.010295,81.8766128 100.921518,82.9279794 100.831395,83.388644 C100.527401,84.9560104 99.8091128,86.1360311 98.1062052,86.1360311 C95.6863546,86.1360311 94.6829035,83.8672925 94.6829035,81.6746397 C94.6829035,80.3286137 95.0581889,79.0005716 95.740159,77.857902 Z M104.184213,70.832421 L104.184213,74.188494 L102.677692,74.188494 L102.677692,74.2258452 C103.807583,74.870499 104.309308,75.9772007 104.309308,77.2858756 L104.309308,77.9319127 L101.17117,77.9319127 C101.422705,77.4698647 101.47651,77.027184 101.47651,76.5111843 C101.47651,74.6491586 100.275327,74.188494 98.6975149,74.188494 L94.9863601,74.188494 L94.9863601,70.832421 L104.184213,70.832421 Z M99.5757364,59.4012986 C102.642584,59.4012986 104.488073,61.5579837 104.488073,64.6373813 C104.488073,67.9201353 102.516144,69.8181288 99.3793505,69.8181288 L99.039038,69.8181288 L99.039038,62.7573717 C97.7127609,62.7573717 96.9944728,63.4767278 96.9944728,64.8587216 C96.9944728,65.5780778 97.2285217,66.0940774 97.837856,66.4634392 L97.837856,69.6894748 C95.6681957,69.1554912 94.682231,67.0347739 94.682231,64.8780889 C94.682231,61.7433562 96.402625,59.4012986 99.5757364,59.4012986 Z M100.920845,62.8127068 L100.920845,66.7027634 C101.799201,66.5367581 102.373562,65.7067318 102.373562,64.8033865 C102.373562,63.8267222 101.870492,63.0160632 100.920845,62.8127068 Z M104.183675,42.4570032 L104.183675,45.8130762 L103.036298,45.8130762 L103.036298,45.8504274 C104.05858,46.6431025 104.489015,47.6197668 104.489015,48.8371387 C104.489015,50.2011486 103.950971,51.3811694 102.730958,52.0631743 C103.879681,52.7078281 104.489015,53.9805351 104.489015,55.271226 C104.489015,57.6686187 102.965007,58.4972616 100.849151,58.4972616 L94.9871671,58.4972616 L94.9871671,55.142572 L99.6079486,55.1425317 C100.559411,55.1394941 101.88892,55.0693594 101.88892,53.7591948 C101.88892,52.2098123 100.47252,52.1558606 99.378947,52.1558606 L94.9871671,52.1558606 L94.9871671,48.7997876 L99.6141037,48.7991809 C100.623636,48.7915974 101.960211,48.6892199 101.960211,47.3071236 C101.960211,45.9237464 100.623636,45.821274 99.6141037,45.8136835 L94.9871671,45.8130762 L94.9871671,42.4570032 L104.183675,42.4570032 Z M66.9565217,0 L66.9565217,41.9230769 L26.3043478,41.9230769 L26.3043478,0 L66.9565217,0 Z M104.183675,25.2173567 L104.183675,28.5734297 L103.036298,28.5734297 L103.036298,28.6107809 C104.05858,29.403456 104.489015,30.3801203 104.489015,31.5974922 C104.489015,32.9615022 103.950971,34.1415229 102.730958,34.8235278 C103.879681,35.4681816 104.489015,36.7408886 104.489015,38.0315795 C104.489015,40.4289722 102.965007,41.2576151 100.849151,41.2576151 L94.9871671,41.2576151 L94.9871671,37.9029255 L99.378947,37.9029255 C100.328594,37.9029255 101.88892,37.9388933 101.88892,36.5195483 C101.88892,35.0275504 100.575496,34.9222619 99.5016953,34.9165094 L94.9871671,34.9162141 L94.9871671,31.5601411 L99.378947,31.5601411 C100.40123,31.5601411 101.960211,31.5601411 101.960211,30.0660937 C101.960211,28.6287136 100.514571,28.5754773 99.4946361,28.5735056 L94.9871671,28.5734297 L94.9871671,25.2173567 L104.183675,25.2173567 Z M99.5938954,12.9191335 C102.228963,12.9191335 104.488746,14.8558615 104.488746,17.6585837 C104.488746,18.7459182 104.094629,19.8885877 103.287564,20.58996 L104.183406,20.58996 L104.183406,23.9446497 L94.9868981,23.9446497 L94.9868981,20.58996 L96.0091807,20.58996 L96.0091807,20.5526088 C95.0945068,19.9632901 94.6829035,18.8012533 94.6829035,17.6945515 C94.6829035,14.8918293 96.9588274,12.9191335 99.5938954,12.9191335 Z M99.576409,16.3858767 C98.4115448,16.3858767 97.5143573,17.1785518 97.5143573,18.5439451 C97.5143573,19.907955 98.4115448,20.7006302 99.576409,20.7006302 C100.7063,20.7006302 101.655947,19.907955 101.655947,18.5439451 C101.655947,17.1785518 100.7063,16.3858767 99.576409,16.3858767 Z M110,0 L110,3.48049683 L104.461616,3.48049683 L104.461616,8.5015196 L110,8.5015196 L110,11.978022 L95.6521739,11.978022 L95.6521739,8.5015196 L101.531799,8.5015196 L101.531799,3.48049683 L95.6521739,3.48049683 L95.6521739,0 L110,0 Z" id="Combined-Shape"></path>
                    </g>
                </g>
            </g>
        </g>
    </g>
</svg>