<?xml version="1.0" encoding="UTF-8"?>
<svg width="508px" height="136px" viewBox="0 0 508 136" version="1.1" xmlns="http://www.w3.org/2000/svg" xmlns:xlink="http://www.w3.org/1999/xlink">
    <!-- Generator: Sketch 55.2 (78181) - https://sketchapp.com -->
    <title>logo</title>
    <desc>Created with Sketch.</desc>
    <g id="Page-1" stroke="none" stroke-width="1" fill="none" fill-rule="evenodd">
        <g id="logo">
            <rect id="Rectangle" fill="#2C2C2C" x="0" y="0" width="508" height="136"></rect>
            <path d="M24.85,111 L24.85,24.624 L35.706,24.624 L35.706,111 L24.85,111 Z M51.834,35.126 L51.834,24.624 L112.84,24.624 L112.84,35.126 L87.47,35.126 L87.47,111 L76.614,111 L76.614,35.126 L51.834,35.126 Z M135.34,77.96 L161.3,77.96 L148.556,40.2 L135.34,77.96 Z M111.858,111 L142.892,24.624 L154.338,24.624 L184.074,111 L171.684,111 L164.604,88.226 L131.918,88.226 L124.484,111 L111.858,111 Z M200.32,95.66 L200.32,24.624 L211.176,24.624 L211.176,94.362 C211.176,100.616 215.07,100.498 218.492,100.498 L252.83,100.498 L252.83,111 L216.84,111 C208.698,111 200.32,108.876 200.32,95.66 Z M252.084,35.126 L252.084,24.624 L313.09,24.624 L313.09,35.126 L287.72,35.126 L287.72,111 L276.864,111 L276.864,35.126 L252.084,35.126 Z M329.572,111 L329.572,24.624 L340.428,24.624 L340.428,111 L329.572,111 Z M360.568,95.66 L360.568,24.624 L371.424,24.624 L371.424,94.362 C371.424,100.616 375.318,100.498 378.74,100.498 L413.078,100.498 L413.078,111 L377.088,111 C368.946,111 360.568,108.876 360.568,95.66 Z M430.386,95.778 L430.386,40.672 C430.386,28.164 438.292,24.27 446.316,24.624 C446.316,24.624 481.716,26.276 483.84,26.512 L483.84,35.244 L447.378,35.244 C441.242,35.244 441.242,38.666 441.242,41.852 L441.242,62.62 L478.884,63.8 L478.884,72.65 L441.242,73.83 L441.242,94.598 C441.36,100.852 445.136,100.734 448.558,100.734 L483.84,100.734 L483.84,109.348 C481.952,109.584 447.496,111.354 447.496,111.354 C439.708,111.826 430.386,109.82 430.386,95.778 Z" id="ITALTILE" fill="#FFFFFF" fill-rule="nonzero"></path>
        </g>
    </g>
</svg>