<?xml version="1.0" standalone="no"?>
<!DOCTYPE svg PUBLIC "-//W3C//DTD SVG 20010904//EN"
 "http://www.w3.org/TR/2001/REC-SVG-20010904/DTD/svg10.dtd">
<svg version="1.0" xmlns="http://www.w3.org/2000/svg"
 width="512.000000pt" height="512.000000pt" viewBox="0 0 512.000000 512.000000"
 preserveAspectRatio="xMidYMid meet">
<metadata>
Created by potrace 1.14, written by Peter Selinger 2001-2017
</metadata>
<g transform="translate(0.000000,512.000000) scale(0.100000,-0.100000)"
fill="#000000" stroke="none">
<path d="M2379 5116 c-2 -2 -31 -7 -64 -10 -84 -9 -116 -14 -230 -37 -55 -10
-110 -21 -122 -23 -166 -32 -460 -145 -648 -249 -312 -172 -522 -354 -779
-678 -114 -143 -269 -415 -345 -607 -81 -203 -154 -497 -178 -712 -15 -144 -8
-554 12 -612 2 -7 6 -31 9 -53 29 -225 133 -540 249 -755 221 -408 495 -709
877 -961 301 -199 646 -336 965 -384 22 -3 72 -11 110 -17 91 -14 469 -19 560
-7 183 23 279 41 420 78 371 98 803 326 1080 571 299 264 552 655 691 1067 41
122 91 322 100 401 3 31 8 59 9 62 22 37 26 528 6 660 -57 382 -178 724 -366
1035 -118 195 -311 422 -515 605 -62 55 -252 196 -335 247 -241 149 -588 289
-814 328 -19 3 -37 7 -40 9 -3 2 -28 7 -56 10 -27 4 -77 12 -110 17 -54 10
-478 22 -486 15z m401 -357 c36 -5 76 -11 90 -13 14 -3 43 -7 65 -11 67 -10
261 -64 346 -95 370 -135 685 -348 934 -632 83 -95 172 -219 232 -323 40 -68
140 -277 166 -345 43 -114 97 -314 112 -415 3 -23 7 -51 10 -63 8 -42 18 -197
19 -292 6 -571 -220 -1140 -612 -1537 -324 -328 -727 -549 -1147 -628 -16 -3
-70 -13 -120 -22 -128 -24 -502 -24 -635 0 -365 65 -662 182 -925 365 -419
290 -711 693 -859 1185 -19 62 -39 137 -45 167 -6 30 -14 66 -16 80 -19 91
-32 247 -33 380 0 213 13 326 63 530 98 396 279 732 550 1018 129 136 327 290
470 366 26 14 53 30 59 35 56 43 425 182 546 205 14 3 60 12 103 20 43 9 109
19 145 22 37 4 68 8 70 9 8 7 353 2 412 -6z"/>
<path d="M2483 4201 c-38 -32 -92 -82 -119 -111 -27 -29 -54 -58 -59 -64 -26
-27 -106 -137 -149 -203 -119 -184 -180 -417 -180 -683 1 -287 77 -559 214
-759 63 -93 183 -235 236 -281 74 -64 122 -100 134 -100 30 0 196 154 285 265
71 88 163 231 197 304 32 71 73 211 82 281 3 25 9 68 12 95 14 106 9 317 -10
419 -56 301 -177 546 -358 723 -63 62 -197 173 -209 173 -3 0 -37 -26 -76 -59z"/>
<path d="M893 2582 c-36 -4 -41 -15 -50 -126 -36 -409 54 -730 290 -1036 191
-247 555 -470 877 -539 95 -20 308 -33 367 -23 31 6 48 104 48 282 0 352 -116
660 -353 939 -182 213 -568 432 -847 480 -109 19 -263 30 -332 23z"/>
<path d="M4077 2584 c-1 -1 -30 -5 -64 -8 -264 -26 -532 -138 -775 -322 -268
-204 -476 -548 -523 -864 -2 -19 -9 -62 -14 -95 -13 -77 -7 -292 9 -372 14
-72 15 -72 167 -67 94 3 119 6 226 25 132 23 331 101 477 187 290 170 514 436
630 752 48 131 72 270 75 443 1 100 -16 302 -27 313 -5 4 -177 11 -181 8z"/>
</g>
</svg>
