<svg width="83" height="59" viewBox="0 0 83 59" fill="none" xmlns="http://www.w3.org/2000/svg">
<mask id="mask0_109_1445" style="mask-type:luminance" maskUnits="userSpaceOnUse" x="0" y="0" width="83" height="59">
<path d="M83 0H0V59H83V0Z" fill="white"/>
</mask>
<g mask="url(#mask0_109_1445)">
<path d="M20.4336 46.1212V58.9516H78.5239V32.0273C76.7724 36.0125 72.491 39.1229 68.3556 40.0949C65.1446 40.4837 61.9822 39.3659 60.4254 36.5471C60.4254 35.5265 59.3064 35.8667 58.6739 35.5751C57.263 34.9919 55.8521 34.2143 54.5385 33.3881H54.4412C53.906 35.5751 53.3709 37.8107 52.3978 39.8033C50.841 41.1641 48.7976 39.9005 47.1921 39.6575C45.9758 39.3173 44.8082 38.8313 43.7378 38.1509C42.1323 39.2201 40.4295 38.1023 38.9213 37.8107C37.559 41.6015 33.6182 45.6838 29.2882 45.9268C26.7583 46.0726 24.8123 44.7119 22.7202 43.7885C22.0391 44.6633 21.2607 45.3923 20.4336 46.1212Z" fill="#065DAA"/>
</g>
<mask id="mask1_109_1445" style="mask-type:luminance" maskUnits="userSpaceOnUse" x="0" y="0" width="83" height="59">
<path d="M83 0H0V59H83V0Z" fill="white"/>
</mask>
<g mask="url(#mask1_109_1445)">
<path d="M20.3853 58.9995H78.5242V27.9443L20.3853 41.0176V58.9995Z" stroke="#065DAA" stroke-width="0.133" stroke-miterlimit="3.864"/>
</g>
<mask id="mask2_109_1445" style="mask-type:luminance" maskUnits="userSpaceOnUse" x="0" y="0" width="83" height="59">
<path d="M83 0H0V59H83V0Z" fill="white"/>
</mask>
<g mask="url(#mask2_109_1445)">
<path d="M32.6455 52.3414C32.6455 52.147 32.6455 51.9526 32.6455 51.6124H29.6291V52.633H31.4779V52.7302C31.4779 53.848 30.6021 54.577 29.1912 54.577C27.5371 54.577 26.3694 53.4106 26.3694 51.661C26.3694 49.96 27.5371 48.7936 29.1912 48.7936C29.9697 48.7936 30.6508 49.0852 31.1373 49.6684L32.0617 48.988C31.3319 48.1132 30.4075 47.6758 29.1912 47.6758C28.0723 47.6758 27.0506 48.0646 26.2721 48.7936C25.4937 49.5226 25.1045 50.5432 25.1045 51.661C25.1045 52.7788 25.4937 53.7994 26.2235 54.5284C26.9533 55.2574 27.9263 55.6462 29.1912 55.6462C31.3319 55.7434 32.6455 54.5284 32.6455 52.3414ZM36.7323 51.6124L37.1215 50.6404C36.8296 50.4946 36.489 50.3974 36.1971 50.3974C35.6133 50.3974 35.2241 50.689 34.9808 51.3694V50.5918H33.8618V55.549H34.9808V53.4106C34.9808 52.0984 35.2241 51.4666 36.0512 51.4666C36.2944 51.418 36.489 51.4666 36.7323 51.6124ZM41.6461 53.0704C41.6461 53.9938 40.965 54.7228 40.1379 54.7228C39.3108 54.7228 38.6297 53.9938 38.6297 53.0704C38.6297 52.147 39.3108 51.418 40.1379 51.418C40.965 51.418 41.6461 52.147 41.6461 53.0704ZM42.0353 54.9658C42.5705 54.4798 42.8138 53.848 42.8138 53.0704C42.8138 52.3414 42.5218 51.7096 42.0353 51.2236C41.5002 50.689 40.819 50.446 40.0893 50.446C39.3595 50.446 38.6784 50.689 38.1918 51.2236C37.6567 51.7096 37.4134 52.39 37.4134 53.119C37.4134 53.848 37.7053 54.4798 38.1918 55.0144C38.727 55.5004 39.4081 55.792 40.0893 55.792C40.819 55.7434 41.5002 55.4518 42.0353 54.9658ZM48.7493 53.0218V50.5918H47.6303V53.362C47.6303 54.2854 47.2897 54.7228 46.3653 54.7228C45.441 54.7228 45.1004 54.2854 45.1004 53.362V50.5918H43.9814V53.0218C43.9814 54.8686 44.6625 55.6948 46.3653 55.6948C48.0682 55.7434 48.7493 54.8686 48.7493 53.0218ZM54.101 53.0704C54.101 54.1396 53.6145 54.7228 52.7387 54.7228C51.9603 54.7228 51.3765 54.091 51.3765 53.0218C51.3765 52.0012 51.9116 51.418 52.7387 51.418C53.6145 51.418 54.101 52.0498 54.101 53.0704ZM55.3173 53.0704C55.3173 51.4666 54.3929 50.446 53.1279 50.446C52.3009 50.446 51.717 50.7862 51.4738 51.418V50.5918H50.3548V57.8332H51.4738V54.8686C51.863 55.4518 52.3982 55.6948 53.1279 55.6948C54.4415 55.7434 55.3173 54.7228 55.3173 53.0704ZM59.7932 55.549H63.7827V54.4312H61.0095V47.9188H59.7932V55.549ZM66.118 51.6124H66.9937V50.6404H66.118V48.7936H64.999V50.6404H64.1233V51.6124H64.999V55.549H66.118V51.6124ZM71.4697 53.0704C71.4697 54.091 70.8859 54.7714 70.1074 54.7714C69.2317 54.7714 68.7452 54.1882 68.7452 53.119C68.7452 52.0984 69.2803 51.4666 70.1074 51.4666C70.9832 51.418 71.4697 52.0012 71.4697 53.0704ZM72.5887 55.549V47.4814H71.4697V51.418C71.2264 50.7862 70.5939 50.446 69.8155 50.446C68.5019 50.446 67.5775 51.4666 67.5775 53.0704C67.5775 54.7714 68.4533 55.7434 69.8155 55.7434C70.4966 55.7434 71.0318 55.4518 71.4697 54.9172V55.549H72.5887Z" fill="white"/>
</g>
<mask id="mask3_109_1445" style="mask-type:luminance" maskUnits="userSpaceOnUse" x="0" y="0" width="83" height="59">
<path d="M83 0H0V59H83V0Z" fill="white"/>
</mask>
<g mask="url(#mask3_109_1445)">
<path d="M69.28 2.96391C70.5936 3.7901 70.4477 5.44249 70.1558 6.70608C70.1071 6.99768 70.0585 7.19208 70.0098 7.48368C70.9828 7.33788 71.9559 6.56029 72.8803 6.17149C74.2912 5.78269 75.6534 5.1509 77.2103 5.73409C79.5942 7.48368 83.4377 9.57347 82.9512 13.1698C82.6106 15.5512 81.2484 17.5438 81.0538 19.8766C81.0051 21.0916 81.5403 22.6954 80.324 23.2786C79.1563 23.8132 77.5995 23.6188 76.3832 23.959C76.6264 24.3964 77.2103 24.6394 77.5995 25.1254C78.7671 26.7291 79.4969 28.4301 79.059 30.4713C77.7941 35.1855 73.0262 38.9277 68.3556 39.9969C65.1446 40.3857 61.9823 39.2679 60.4254 36.4491C60.4254 35.4285 59.3064 35.7687 58.6739 35.4771C57.2144 34.8453 55.8035 34.1163 54.4412 33.1929C53.8574 35.4285 53.3709 37.6641 52.3978 39.6567C50.841 41.0174 48.7976 39.7539 47.1921 39.4623C45.9758 39.1221 44.8082 38.6361 43.7378 37.9557C42.1323 39.0249 40.4295 37.9071 38.9213 37.6155C37.559 41.6006 33.6182 45.683 29.2882 45.926C26.7583 46.0718 24.8123 44.711 22.7202 43.7876C20.3849 46.655 17.2226 48.6962 14.0602 50.2514C10.5573 51.9524 6.37323 50.8832 3.50277 48.5504C1.21613 46.4606 -0.535332 44.1278 0.145793 40.9202C1.45939 29.3535 5.05963 18.6616 9.29233 8.21267C10.2167 6.17149 12.552 6.02569 14.7413 6.12289C17.0766 6.31729 19.266 6.90048 20.9688 8.65007C21.8445 10.4483 19.4119 11.3231 18.8767 12.7324C15.9576 17.2522 14.2548 22.2094 13.3791 27.5553C12.6493 30.8115 11.7249 34.0191 10.8492 37.2267L11.2384 37.1295L18.2929 32.1723C18.4389 32.0751 18.6335 32.1237 18.7794 32.0751C19.6065 26.3404 21.212 20.8486 24.8123 16.2802C26.0772 14.725 28.0233 13.8988 30.1153 14.482C31.8181 14.8708 33.6182 15.454 35.1264 16.426C35.4184 16.1344 35.0778 15.454 35.467 15.0166C37.559 13.1212 40.7701 12.8296 43.3973 13.753C44.3703 13.6072 45.4893 15.8428 46.0731 13.9474C47.8246 12.3922 50.2572 13.753 52.0086 14.4334C52.1546 13.5586 51.6681 12.5866 52.3978 11.9062C53.4682 10.7885 55.2197 11.0315 56.6306 11.4203C56.7765 10.9343 56.5333 10.4483 56.6306 9.96226C57.0684 6.99768 57.2144 3.9359 58.7712 1.36012C59.7929 0.0479304 61.4471 -0.195068 63.1012 0.0965301C65.3392 0.631126 67.4799 1.40872 69.28 2.96391ZM30.6018 34.6995C29.8721 34.8453 29.1423 34.7481 28.4125 34.6023V36.7407C28.3638 36.9837 28.3638 37.4211 28.8017 37.2753C29.5801 36.6435 30.4559 35.6715 30.6018 34.6995ZM64.4148 26.7777L63.7337 25.8058C63.3932 26.4375 63.5391 27.2637 63.3932 27.8469C63.7337 27.5067 64.1716 27.1179 64.4148 26.7777ZM72.2964 18.5158H72.1991C71.8099 19.3906 71.2747 20.2654 71.4207 21.3832C72.0045 22.501 73.2695 22.9384 74.4858 23.1814C74.0966 22.8412 73.6587 22.5982 73.1722 22.4524C71.1288 21.8206 72.4424 19.6822 72.2964 18.5158Z" fill="#231F20"/>
</g>
<mask id="mask4_109_1445" style="mask-type:luminance" maskUnits="userSpaceOnUse" x="0" y="0" width="83" height="59">
<path d="M83 0H0V59H83V0Z" fill="white"/>
</mask>
<g mask="url(#mask4_109_1445)">
<path d="M30.602 34.7004C29.8723 34.8462 29.1425 34.749 28.4127 34.6032V36.7416C28.364 36.9846 28.364 37.422 28.8019 37.2762C29.5803 36.6444 30.4561 35.6724 30.602 34.7004ZM68.9397 27.8479C69.5235 28.1881 70.2046 28.1395 70.7398 28.2853V28.7713C69.6208 30.0835 68.2585 30.9097 66.8476 31.6387C67.5774 30.5695 69.6694 29.7919 69.1343 28.2367C69.1343 27.9937 68.745 28.0909 68.9397 27.8479ZM66.2152 27.2161C64.7556 27.9451 63.3447 29.0143 62.2744 30.3751C62.3717 27.7993 62.9068 25.0291 63.5393 22.5019C63.7826 24.2029 64.4637 26.2441 66.2152 27.1189V27.2161ZM65.3881 13.6082C65.2908 13.8998 64.9989 14.1914 64.8043 14.483L63.4907 13.8026C64.1231 13.6082 64.8529 13.8512 65.3881 13.6082ZM32.8887 32.5135C32.2562 34.8462 30.8453 37.2762 28.5587 38.9286C28.0721 39.0258 27.9262 38.4426 27.7316 38.151C27.391 36.5958 27.391 34.749 27.4883 33.0966C28.51 33.777 29.9696 34.1658 31.1859 33.7284C31.8183 33.3396 32.3535 33.1452 32.8887 32.5135ZM30.3101 23.2309C29.9696 24.9319 29.2884 26.7301 28.4614 28.3825C28.7533 26.5843 29.5803 24.8833 30.3101 23.2309ZM81.881 12.4418C81.1026 10.0604 78.7187 7.87342 76.3834 6.80422C73.1237 6.70702 70.5452 8.55381 68.0153 10.6436C68.3558 8.84541 69.1343 6.99862 69.1343 4.90884C69.1343 4.03404 68.1612 3.69384 67.6747 3.15925L64.9502 1.94426C63.442 1.55546 61.1554 0.534865 59.8904 2.09005C58.6255 4.90884 58.0417 8.06781 57.9443 11.324C58.3822 12.1988 59.3553 12.3932 60.085 12.8792C59.9877 13.2194 59.5012 12.8792 59.2093 12.8792C58.7714 12.782 58.1876 12.9278 58.0417 13.3652C56.9227 12.6362 55.6091 12.1016 54.1982 12.2474C53.7603 12.2474 53.4684 12.5876 53.2251 12.9764C53.517 14.5802 52.7873 15.8924 52.6413 17.399L52.398 17.5448C52.2521 17.2532 52.398 16.8158 52.3007 16.5242C51.8142 15.3092 50.4033 15.0662 49.333 14.6288C48.6032 14.5802 47.6302 14.1914 47.095 14.8232C46.0247 16.5242 45.6354 18.5653 44.7111 20.3149C44.6624 19.5859 44.8084 18.7597 44.857 17.9821C44.9057 17.3504 45.6841 17.0588 45.3922 16.3784C45.0516 15.698 44.3218 15.3092 43.6407 15.0176C41.5487 13.9484 38.5323 14.24 36.6835 15.7466C36.2943 16.427 37.2673 16.9616 37.316 17.6905C37.7052 20.3635 37.8025 23.1823 37.5106 25.8553C37.4133 26.8273 37.2673 27.7507 37.0241 28.6741L36.0024 28.0909C36.2943 27.4105 36.5376 26.6329 36.7322 25.8553C36.8295 25.4665 36.9268 25.0777 37.0241 24.6889C37.0241 22.9879 37.3646 20.8495 36.4889 19.3915C34.6888 16.8644 31.8183 15.7466 28.8506 15.5036C26.7585 15.455 25.5909 17.5448 24.5206 18.9541C23.2556 21.1411 22.2826 23.4739 21.5528 25.9039C20.823 28.2367 20.3365 30.7153 20.1419 33.2424C19.9959 33.6798 19.4121 33.2424 18.9742 33.3396C16.0551 35.7696 13.0874 37.8108 9.77905 39.0744C9.38984 39.0258 9.58445 38.5884 9.5358 38.3454L12.2603 26.2441C12.3089 26.0983 12.3576 26.0011 12.3576 25.8553C13.7199 21.3355 14.7415 16.67 17.3687 12.7334C18.0012 11.5184 19.0716 10.7408 19.6067 9.5744C18.6337 8.11641 16.9309 7.72762 15.2767 7.48462C13.8172 7.43602 11.6278 7.04722 10.7521 8.55381C8.3195 14.1914 6.17882 19.9261 4.47601 25.8553C3.30836 30.0349 2.33533 34.3116 1.70285 38.6856C1.21633 41.8932 1.36229 45.3924 4.1841 47.4821C6.17882 49.4261 9.00063 50.4467 11.7738 49.4747C15.7632 48.1139 19.8013 45.7812 22.3312 41.9904H22.6718C25.2503 43.4484 28.0235 45.6354 31.2345 44.2746C34.7861 42.8166 37.316 39.1716 37.8512 35.5752C38.3377 35.8182 38.6782 36.207 39.1161 36.3528C40.381 36.7902 41.8406 37.6164 43.1055 36.8874C43.884 34.8948 44.3705 32.7078 45.1976 30.7639C45.0516 31.9789 44.857 33.1452 44.7111 34.3602C44.7111 35.3322 44.3218 36.4014 45.003 37.1304C46.7058 38.151 48.7005 38.9772 50.9385 38.88C51.5223 38.88 51.571 38.2482 51.8629 37.8594C52.9819 33.8256 53.8089 29.6947 55.0739 25.7581C55.6577 23.9599 56.3388 22.2103 57.1659 20.5579C56.7281 22.3075 56.2415 24.0085 55.8523 25.7581C55.5118 27.3133 55.2198 28.9171 55.0739 30.6667C55.1712 31.5415 55.0739 32.4162 55.901 32.9022C57.4578 33.534 59.0633 35.0406 60.8635 34.4088L61.5932 35.8668C62.8582 38.151 65.3881 38.88 67.772 38.8314C72.0534 38.1024 76.5293 34.3116 77.8916 30.1321C78.2322 28.4797 77.697 27.0217 76.6266 25.7581C76.3834 25.4665 76.0915 25.1749 75.7996 24.8833C74.3887 23.2309 71.6155 24.1543 70.5938 22.2103C70.3992 19.6831 71.3722 17.3504 73.4643 15.8438L73.6589 15.9896C73.2697 17.6905 71.7615 20.2177 73.6589 21.7243C75.3617 22.5505 77.697 22.7449 79.4971 22.3075L79.8863 22.0159C79.1565 18.5167 81.2972 15.698 81.881 12.4418Z" fill="white"/>
</g>
<mask id="mask5_109_1445" style="mask-type:luminance" maskUnits="userSpaceOnUse" x="0" y="0" width="83" height="59">
<path d="M83 0H0V59H83V0Z" fill="white"/>
</mask>
<g mask="url(#mask5_109_1445)">
<path d="M56.4847 29.2088C56.4847 30.035 56.2414 31.007 56.6793 31.6388C57.7983 32.465 59.0632 33.2912 60.5228 33.0482C61.1553 26.9733 62.7121 21.2385 64.5609 15.5523C63.15 14.5317 61.3985 14.1915 59.5498 13.9971C59.2578 14.3373 59.5984 14.7261 59.5498 15.0663C58.4308 19.6833 57.3118 24.4461 56.4847 29.2088ZM20.8716 35.8184C20.4824 35.2838 20.2391 34.5062 19.558 34.6034C17.0767 36.3044 14.7414 38.0054 12.1629 39.269C10.8493 39.9008 9.43839 40.8242 7.93018 41.0672C7.78423 40.5812 7.83288 39.8522 7.88153 39.269C8.90322 32.1734 11.3845 25.5639 13.2332 18.8085C14.4982 15.7953 15.3739 12.5878 17.7578 10.1092V9.86617C16.6389 8.89418 15.082 8.79698 13.4278 8.69978C12.2602 8.60258 11.8223 9.57457 11.2872 10.4008C8.02749 18.8571 4.76782 27.362 3.35691 36.5474C3.065 39.755 1.94601 43.8373 4.76782 46.2187C6.56793 48.0169 9.09783 49.0861 11.6277 48.2599C14.7414 46.9963 17.8552 45.3925 20.1904 42.7195C21.8446 40.7756 21.9906 37.9082 20.8716 35.8184ZM27.4882 29.1116C27.5855 26.7789 28.4612 24.5919 29.4829 22.5993C29.8722 22.0647 30.5533 20.8497 31.1858 21.8217C31.0884 24.7863 30.1641 27.3134 28.5586 29.6462C28.072 29.7434 27.7315 29.5004 27.4882 29.1116ZM37.024 33.6314C36.9267 32.3192 37.8997 30.035 36.2455 29.5004C35.6617 29.4032 34.9319 29.5004 34.4941 29.9378C34.3481 34.1174 32.2074 37.7624 28.7045 40.241C28.072 40.4354 27.4882 40.0952 27.0503 39.6092C26.0773 37.568 26.1746 34.8464 26.4665 32.5136C26.7584 32.1734 26.4665 31.2986 27.0503 31.2014C28.072 32.5136 29.7262 32.9024 31.2831 32.3678C34.0076 30.5696 34.5914 27.4107 35.6131 24.7377C35.905 23.3769 36.7807 21.8217 35.8077 20.5095C33.667 18.6141 31.5263 17.0589 28.7045 17.0103C27.6342 17.1561 26.9044 18.0795 26.1746 18.8571C23.6934 22.7451 22.0879 26.9247 21.4067 31.5416C21.4067 32.8538 20.7743 34.7978 22.1852 35.624C23.2069 36.9848 22.9149 38.9288 23.1582 40.5326C25.4448 42.2336 28.1693 44.2747 31.2344 42.9139C34.9319 41.0672 36.3428 37.2278 37.024 33.6314ZM50.9384 36.9362C52.6412 29.6462 54.49 22.4535 58.2848 16.0383V15.4065C57.6523 13.9971 56.0955 13.7055 54.6846 13.5597C54.1008 13.6569 54.3927 14.2887 54.344 14.8233C53.225 18.3711 52.2033 21.9189 50.7924 25.3695L50.6465 25.2723L51.4249 18.0309C51.4736 17.3991 51.0843 16.8645 50.5492 16.5243C49.6734 15.9411 48.5544 15.4551 47.5814 15.9897C46.2192 18.8571 45.1002 21.8703 43.7866 24.7377H43.6406C43.6406 22.4535 43.3974 19.9263 43.5433 17.7879C43.7379 17.4477 44.1758 17.2047 44.0785 16.8159C43.9325 16.2813 43.3974 16.1355 43.0081 15.9411C41.4999 15.4551 39.1646 15.0177 38.0943 16.2813C39.4566 21.6273 38.2889 27.848 38.0943 33.2426C38.1916 33.8744 38.4835 34.409 39.0673 34.7978C40.089 35.2352 41.1594 36.2072 42.327 35.5754C43.9812 32.465 44.8569 29.063 46.3651 25.9041H46.5597C46.4624 29.306 46.1705 32.951 46.2678 36.11C47.4355 37.0334 48.7004 37.8596 50.4519 37.6166C50.6951 37.6652 50.8411 37.2278 50.9384 36.9362ZM66.0691 11.956C67.0908 9.96337 67.7233 7.87358 67.8206 5.5894C67.626 5.0062 67.1881 4.32581 66.6043 4.03421C65.0961 3.45101 63.8311 2.33322 61.9823 2.62482C61.4472 2.77062 60.912 2.96502 60.5714 3.49961C59.8417 5.881 59.1605 8.31098 59.2092 10.8868C59.793 11.7616 60.8634 11.8588 61.7391 12.199C63.15 12.442 64.9501 13.3167 66.0691 11.956ZM80.1295 11.6158C79.1564 9.96337 77.3563 8.31098 75.313 8.21378C72.0046 8.79698 69.3288 10.8382 66.9935 13.4139C64.9501 16.1355 64.0257 19.7319 64.8042 23.1339C65.0961 25.1751 67.1394 26.0985 68.8909 26.7789C69.9613 27.1191 71.0802 27.1191 72.0046 27.7022C72.2479 27.9452 72.1992 28.334 72.1019 28.6256C70.5451 30.7154 68.4044 32.3192 65.9231 32.708C65.5339 32.7566 65.0961 32.465 65.242 32.0276C66.0205 30.8126 67.1881 29.792 68.2584 28.9658C68.453 28.7714 68.3557 28.5284 68.2098 28.2854C66.8475 27.4107 65.7772 28.9172 64.7068 29.6462C63.3932 30.8126 61.9823 32.1734 62.1283 33.9716C62.5175 35.381 63.7338 36.6932 65.1447 37.2278C66.8475 38.0054 68.9396 37.5194 70.4478 36.6446C73.1236 34.7006 76.8698 32.1734 76.5292 28.4798C76.1887 27.2648 75.4102 26.3415 74.3399 25.7097C72.6371 24.6405 69.9612 24.9321 69.1828 22.6479C69.0369 20.2179 69.8153 17.8365 71.4208 15.9897C72.5398 15.0177 73.8534 13.8999 75.313 13.8513C74.7291 15.8439 73.6588 17.9337 74.2426 20.1693C75.021 21.4815 76.9185 21.4815 78.378 21.3357C78.2807 21.1899 78.378 20.9469 78.2807 20.8011C78.0374 18.2253 79.4483 16.1355 80.0808 13.8513C80.2754 13.1709 80.4214 12.199 80.1295 11.6158Z" fill="#D12028"/>
</g>
</svg>
