<?xml version="1.0" encoding="UTF-8"?>
<!-- Generator: Adobe Illustrator 27.3.1, SVG Export Plug-In . SVG Version: 6.00 Build 0)  -->
<svg xmlns="http://www.w3.org/2000/svg" xmlns:xlink="http://www.w3.org/1999/xlink" version="1.1" id="Layer_2" x="0px" y="0px" width="155px" height="86px" viewBox="0 0 155 86" style="enable-background:new 0 0 155 86;" xml:space="preserve">
<style type="text/css">
	.st0{fill:#A9CB6B;}
</style>
<g>
	<path class="st0" d="M54.2,41.1c0-1.9-0.4-3.5-1.3-4.6c-0.9-1.2-2.2-1.7-3.9-1.7c-0.6,0-1.1,0-1.5,0.1c-0.5,0-0.9,0.1-1.2,0.2v11.3   c0.4,0.3,0.9,0.5,1.5,0.6c0.6,0.2,1.3,0.3,1.9,0.3C52.7,47.1,54.2,45.1,54.2,41.1 M60.5,41c0,1.7-0.2,3.3-0.6,4.6   c-0.4,1.4-1,2.6-1.8,3.6c-0.8,1-1.8,1.8-3,2.3c-1.2,0.6-2.6,0.8-4.1,0.8c-0.9,0-1.7-0.1-2.4-0.2c-0.8-0.2-1.5-0.4-2.2-0.7v7.1   L40,59.7v-29c0.6-0.2,1.2-0.3,1.9-0.5c0.7-0.2,1.5-0.3,2.3-0.4c0.8-0.1,1.6-0.2,2.4-0.3c0.8-0.1,1.6-0.1,2.4-0.1   c1.8,0,3.4,0.3,4.9,0.8c1.4,0.5,2.6,1.3,3.6,2.3c1,1,1.7,2.2,2.2,3.6C60.3,37.6,60.5,39.2,60.5,41"></path>
	<path d="M6.5,73.8c0.3,0,0.6,0,0.8-0.1c0.2-0.1,0.2-0.2,0.2-0.4c0-0.2-0.1-0.4-0.2-0.5c-0.2-0.1-0.4-0.3-0.8-0.4   c-0.2-0.1-0.4-0.1-0.5-0.2C5.7,72,5.6,72,5.5,71.9c-0.1-0.1-0.2-0.2-0.3-0.4c-0.1-0.1-0.1-0.3-0.1-0.5c0-0.4,0.2-0.7,0.5-1   c0.3-0.2,0.7-0.4,1.3-0.4c0.1,0,0.3,0,0.4,0c0.1,0,0.3,0,0.4,0.1c0.1,0,0.2,0,0.3,0.1c0.1,0,0.2,0,0.2,0.1l-0.2,0.7   c-0.1,0-0.2-0.1-0.4-0.1c-0.2-0.1-0.4-0.1-0.7-0.1c-0.2,0-0.4,0-0.6,0.1c-0.2,0.1-0.3,0.2-0.3,0.4c0,0.1,0,0.2,0.1,0.3   c0,0.1,0.1,0.1,0.2,0.2c0.1,0.1,0.2,0.1,0.3,0.2c0.1,0.1,0.3,0.1,0.4,0.2c0.2,0.1,0.4,0.2,0.6,0.2c0.2,0.1,0.3,0.2,0.4,0.3   c0.1,0.1,0.2,0.2,0.3,0.4c0.1,0.2,0.1,0.3,0.1,0.6c0,0.4-0.2,0.8-0.5,1c-0.3,0.2-0.8,0.3-1.4,0.3c-0.4,0-0.7,0-1-0.1   c-0.2-0.1-0.4-0.1-0.5-0.2l0.2-0.7c0.1,0,0.2,0.1,0.5,0.2C5.8,73.8,6.1,73.8,6.5,73.8"></path>
	<path d="M9.3,69.9c0.2,0,0.4-0.1,0.8-0.2c0.3-0.1,0.7-0.1,1.1-0.1c0.3,0,0.6,0,0.8,0.1c0.2,0.1,0.4,0.2,0.5,0.4   c0,0,0.1-0.1,0.2-0.1c0.1-0.1,0.2-0.1,0.3-0.2c0.1-0.1,0.3-0.1,0.4-0.1c0.2,0,0.3-0.1,0.5-0.1c0.4,0,0.7,0.1,0.9,0.2   c0.2,0.1,0.4,0.3,0.5,0.4c0.1,0.2,0.2,0.4,0.3,0.7c0,0.3,0.1,0.6,0.1,0.9v2.6h-0.8V72c0-0.3,0-0.5,0-0.7c0-0.2-0.1-0.4-0.2-0.5   c-0.1-0.1-0.2-0.2-0.3-0.3c-0.1-0.1-0.3-0.1-0.5-0.1c-0.3,0-0.5,0-0.7,0.1c-0.2,0.1-0.3,0.1-0.4,0.2c0,0.2,0.1,0.3,0.1,0.5   c0,0.2,0,0.4,0,0.6v2.6H12V72c0-0.3,0-0.5,0-0.7c0-0.2-0.1-0.4-0.2-0.5c-0.1-0.1-0.2-0.2-0.3-0.3c-0.1-0.1-0.3-0.1-0.5-0.1   c-0.1,0-0.2,0-0.3,0c-0.1,0-0.2,0-0.3,0c-0.1,0-0.2,0-0.2,0c-0.1,0-0.1,0-0.1,0v4H9.3V69.9z"></path>
	<path d="M18.5,73.8c0.2,0,0.4,0,0.5,0c0.2,0,0.3,0,0.4,0v-1.4c-0.1,0-0.2-0.1-0.3-0.1c-0.1,0-0.3,0-0.5,0c-0.1,0-0.3,0-0.4,0   c-0.1,0-0.3,0.1-0.4,0.1c-0.1,0.1-0.2,0.1-0.3,0.2c-0.1,0.1-0.1,0.2-0.1,0.4c0,0.3,0.1,0.5,0.3,0.6C17.9,73.7,18.2,73.8,18.5,73.8    M18.4,69.6c0.3,0,0.6,0,0.9,0.1c0.2,0.1,0.4,0.2,0.6,0.4c0.1,0.2,0.2,0.3,0.3,0.6c0.1,0.2,0.1,0.5,0.1,0.7v2.9c-0.1,0-0.2,0-0.3,0   c-0.1,0-0.3,0-0.4,0.1c-0.2,0-0.3,0-0.5,0c-0.2,0-0.4,0-0.6,0c-0.3,0-0.5,0-0.7-0.1c-0.2-0.1-0.4-0.1-0.6-0.3   c-0.2-0.1-0.3-0.3-0.4-0.5c-0.1-0.2-0.1-0.4-0.1-0.7c0-0.3,0.1-0.5,0.2-0.7c0.1-0.2,0.2-0.3,0.4-0.4c0.2-0.1,0.4-0.2,0.6-0.3   c0.2-0.1,0.5-0.1,0.8-0.1c0.1,0,0.2,0,0.3,0c0.1,0,0.2,0,0.3,0c0.1,0,0.2,0,0.2,0c0.1,0,0.1,0,0.1,0v-0.2c0-0.1,0-0.3,0-0.4   c0-0.1-0.1-0.3-0.2-0.4c-0.1-0.1-0.2-0.2-0.3-0.3c-0.1-0.1-0.3-0.1-0.5-0.1c-0.3,0-0.5,0-0.7,0.1c-0.2,0-0.4,0.1-0.5,0.1l-0.1-0.7   c0.1,0,0.3-0.1,0.5-0.1C17.9,69.6,18.1,69.6,18.4,69.6"></path>
	<path d="M23.2,69.6c0.1,0,0.2,0,0.2,0c0.1,0,0.2,0,0.3,0c0.1,0,0.2,0,0.2,0c0.1,0,0.1,0,0.2,0L24,70.5c-0.1,0-0.2-0.1-0.3-0.1   c-0.2,0-0.3,0-0.6,0c-0.2,0-0.3,0-0.5,0c-0.2,0-0.3,0.1-0.3,0.1v3.9h-0.8v-4.5c0.2-0.1,0.4-0.1,0.7-0.2   C22.5,69.7,22.9,69.6,23.2,69.6"></path>
	<path d="M25.8,69.7h1.8v0.7h-1.8v2.2c0,0.2,0,0.4,0.1,0.6c0,0.2,0.1,0.3,0.2,0.4c0.1,0.1,0.2,0.1,0.3,0.2c0.1,0,0.2,0.1,0.4,0.1   c0.3,0,0.5,0,0.6-0.1c0.2-0.1,0.3-0.1,0.3-0.1l0.2,0.7c-0.1,0-0.2,0.1-0.4,0.2c-0.2,0.1-0.4,0.1-0.7,0.1c-0.3,0-0.6,0-0.8-0.1   c-0.2-0.1-0.4-0.2-0.5-0.4c-0.1-0.2-0.2-0.4-0.3-0.6c-0.1-0.2-0.1-0.5-0.1-0.8v-4.2l0.8-0.1V69.7z"></path>
	<path d="M31.4,71.6c0-0.4-0.1-0.7-0.3-0.9c-0.2-0.2-0.5-0.4-0.8-0.4c-0.2,0-0.4,0-0.5,0.1c-0.1,0.1-0.3,0.2-0.4,0.3   c-0.1,0.1-0.2,0.3-0.2,0.4c-0.1,0.2-0.1,0.3-0.1,0.5H31.4z M28.2,72.1c0-0.4,0.1-0.8,0.2-1.1c0.1-0.3,0.3-0.6,0.5-0.8   c0.2-0.2,0.4-0.4,0.7-0.5c0.3-0.1,0.5-0.2,0.8-0.2c0.6,0,1.1,0.2,1.5,0.6c0.3,0.4,0.5,1,0.5,1.8v0.1c0,0.1,0,0.1,0,0.2h-3.2   c0,0.5,0.2,0.9,0.4,1.1c0.2,0.3,0.6,0.4,1.2,0.4c0.3,0,0.5,0,0.7-0.1c0.2-0.1,0.4-0.1,0.5-0.1l0.1,0.7c-0.1,0.1-0.3,0.1-0.5,0.2   c-0.3,0.1-0.5,0.1-0.9,0.1c-0.4,0-0.8-0.1-1.1-0.2c-0.3-0.1-0.5-0.3-0.7-0.5c-0.2-0.2-0.3-0.5-0.4-0.8   C28.2,72.8,28.2,72.4,28.2,72.1"></path>
	<path d="M35.1,69.6c0.1,0,0.2,0,0.2,0c0.1,0,0.2,0,0.3,0c0.1,0,0.2,0,0.2,0c0.1,0,0.1,0,0.2,0l-0.1,0.7c-0.1,0-0.2-0.1-0.3-0.1   c-0.2,0-0.4,0-0.6,0c-0.2,0-0.3,0-0.5,0c-0.2,0-0.3,0.1-0.3,0.1v3.9h-0.8v-4.5c0.2-0.1,0.4-0.1,0.7-0.2   C34.4,69.7,34.7,69.6,35.1,69.6"></path>
	<path d="M37,73.4c0,0,0,0.1,0,0.1v0.1c0,0.4-0.1,0.8-0.2,1.1c-0.1,0.4-0.3,0.7-0.5,1.1l-0.6-0.2c0.2-0.3,0.2-0.6,0.3-0.9   c0-0.3,0.1-0.6,0.1-0.9c0-0.1,0-0.2,0-0.2c0-0.1,0-0.1,0-0.2H37z"></path>
	<path d="M41.4,73.8c0.3,0,0.6,0,0.8-0.1c0.2-0.1,0.2-0.2,0.2-0.4c0-0.2-0.1-0.4-0.2-0.5c-0.2-0.1-0.4-0.3-0.8-0.4   c-0.2-0.1-0.4-0.1-0.5-0.2c-0.2-0.1-0.3-0.2-0.4-0.3c-0.1-0.1-0.2-0.2-0.3-0.4C40.1,71.3,40,71.2,40,71c0-0.4,0.2-0.7,0.5-1   c0.3-0.2,0.7-0.4,1.3-0.4c0.1,0,0.3,0,0.4,0c0.1,0,0.3,0,0.4,0.1c0.1,0,0.2,0,0.3,0.1c0.1,0,0.2,0,0.2,0.1l-0.2,0.7   c-0.1,0-0.2-0.1-0.4-0.1c-0.2-0.1-0.4-0.1-0.7-0.1c-0.2,0-0.4,0-0.6,0.1c-0.2,0.1-0.3,0.2-0.3,0.4c0,0.1,0,0.2,0.1,0.3   c0,0.1,0.1,0.1,0.2,0.2c0.1,0.1,0.2,0.1,0.3,0.2c0.1,0.1,0.3,0.1,0.4,0.2c0.2,0.1,0.4,0.2,0.6,0.2c0.2,0.1,0.3,0.2,0.4,0.3   s0.2,0.2,0.3,0.4c0.1,0.2,0.1,0.3,0.1,0.6c0,0.4-0.2,0.8-0.5,1c-0.3,0.2-0.8,0.3-1.4,0.3c-0.4,0-0.7,0-1-0.1   c-0.2-0.1-0.4-0.1-0.5-0.2l0.2-0.7c0.1,0,0.2,0.1,0.5,0.2C40.8,73.8,41.1,73.8,41.4,73.8"></path>
	<path d="M47.9,74.3c-0.2,0-0.4,0.1-0.8,0.2c-0.3,0.1-0.7,0.1-1.1,0.1c-0.4,0-0.7-0.1-0.9-0.2c-0.2-0.1-0.4-0.3-0.6-0.4   c-0.2-0.2-0.3-0.4-0.3-0.7c-0.1-0.3-0.1-0.6-0.1-0.9v-2.6H45v2.4c0,0.6,0.1,1,0.3,1.2c0.2,0.2,0.5,0.4,0.9,0.4c0.1,0,0.2,0,0.3,0   c0.1,0,0.2,0,0.3,0c0.1,0,0.2,0,0.2,0c0.1,0,0.1,0,0.1,0v-4h0.8V74.3z"></path>
	<path d="M50.4,73.8c0.3,0,0.6,0,0.8-0.1c0.2-0.1,0.2-0.2,0.2-0.4c0-0.2-0.1-0.4-0.2-0.5c-0.2-0.1-0.4-0.3-0.8-0.4   c-0.2-0.1-0.4-0.1-0.5-0.2c-0.2-0.1-0.3-0.2-0.4-0.3c-0.1-0.1-0.2-0.2-0.3-0.4C49,71.3,49,71.2,49,71c0-0.4,0.2-0.7,0.5-1   c0.3-0.2,0.7-0.4,1.3-0.4c0.1,0,0.3,0,0.4,0c0.1,0,0.3,0,0.4,0.1c0.1,0,0.2,0,0.3,0.1c0.1,0,0.2,0,0.2,0.1l-0.2,0.7   c-0.1,0-0.2-0.1-0.4-0.1c-0.2-0.1-0.4-0.1-0.7-0.1c-0.2,0-0.4,0-0.6,0.1c-0.2,0.1-0.3,0.2-0.3,0.4c0,0.1,0,0.2,0.1,0.3   s0.1,0.1,0.2,0.2c0.1,0.1,0.2,0.1,0.3,0.2c0.1,0.1,0.3,0.1,0.4,0.2c0.2,0.1,0.4,0.2,0.6,0.2c0.2,0.1,0.3,0.2,0.4,0.3   c0.1,0.1,0.2,0.2,0.3,0.4c0.1,0.2,0.1,0.3,0.1,0.6c0,0.4-0.2,0.8-0.5,1c-0.3,0.2-0.8,0.3-1.4,0.3c-0.4,0-0.7,0-1-0.1   c-0.2-0.1-0.4-0.1-0.5-0.2l0.2-0.7c0.1,0,0.2,0.1,0.5,0.2C49.8,73.8,50,73.8,50.4,73.8"></path>
	<path d="M54,69.7h1.8v0.7H54v2.2c0,0.2,0,0.4,0.1,0.6c0,0.2,0.1,0.3,0.2,0.4c0.1,0.1,0.2,0.1,0.3,0.2c0.1,0,0.2,0.1,0.4,0.1   c0.3,0,0.5,0,0.6-0.1c0.2-0.1,0.3-0.1,0.3-0.1l0.2,0.7c-0.1,0-0.2,0.1-0.4,0.2c-0.2,0.1-0.4,0.1-0.7,0.1c-0.3,0-0.6,0-0.8-0.1   c-0.2-0.1-0.4-0.2-0.5-0.4c-0.1-0.2-0.2-0.4-0.3-0.6c-0.1-0.2-0.1-0.5-0.1-0.8v-4.2l0.8-0.1V69.7z"></path>
	<path d="M58.4,73.8c0.2,0,0.4,0,0.5,0c0.2,0,0.3,0,0.4,0v-1.4c-0.1,0-0.2-0.1-0.3-0.1c-0.1,0-0.3,0-0.5,0c-0.1,0-0.3,0-0.4,0   c-0.1,0-0.3,0.1-0.4,0.1c-0.1,0.1-0.2,0.1-0.3,0.2c-0.1,0.1-0.1,0.2-0.1,0.4c0,0.3,0.1,0.5,0.3,0.6C57.8,73.7,58.1,73.8,58.4,73.8    M58.3,69.6c0.3,0,0.6,0,0.9,0.1c0.2,0.1,0.4,0.2,0.6,0.4c0.1,0.2,0.2,0.3,0.3,0.6c0.1,0.2,0.1,0.5,0.1,0.7v2.9c-0.1,0-0.2,0-0.3,0   c-0.1,0-0.3,0-0.4,0.1c-0.2,0-0.3,0-0.5,0c-0.2,0-0.4,0-0.6,0c-0.3,0-0.5,0-0.7-0.1c-0.2-0.1-0.4-0.1-0.6-0.3   c-0.2-0.1-0.3-0.3-0.4-0.5c-0.1-0.2-0.1-0.4-0.1-0.7c0-0.3,0.1-0.5,0.2-0.7c0.1-0.2,0.2-0.3,0.4-0.4c0.2-0.1,0.4-0.2,0.6-0.3   c0.2-0.1,0.5-0.1,0.8-0.1c0.1,0,0.2,0,0.3,0c0.1,0,0.2,0,0.3,0c0.1,0,0.2,0,0.2,0c0.1,0,0.1,0,0.1,0v-0.2c0-0.1,0-0.3,0-0.4   c0-0.1-0.1-0.3-0.2-0.4c-0.1-0.1-0.2-0.2-0.3-0.3c-0.1-0.1-0.3-0.1-0.5-0.1c-0.3,0-0.5,0-0.7,0.1c-0.2,0-0.4,0.1-0.5,0.1L57,69.8   c0.1,0,0.3-0.1,0.5-0.1C57.8,69.6,58,69.6,58.3,69.6"></path>
	<path d="M62.2,74.4h-0.8v-4.7h0.8V74.4z M61.8,68.9c-0.2,0-0.3,0-0.4-0.1c-0.1-0.1-0.2-0.2-0.2-0.4c0-0.2,0.1-0.3,0.2-0.4   c0.1-0.1,0.2-0.1,0.4-0.1c0.2,0,0.3,0.1,0.4,0.1c0.1,0.1,0.2,0.2,0.2,0.4c0,0.2-0.1,0.3-0.2,0.4C62.1,68.8,62,68.9,61.8,68.9"></path>
	<path d="M63.6,69.9c0.2,0,0.4-0.1,0.8-0.2c0.3-0.1,0.7-0.1,1.1-0.1c0.4,0,0.7,0.1,0.9,0.2c0.2,0.1,0.4,0.3,0.6,0.4   c0.1,0.2,0.3,0.4,0.3,0.7c0.1,0.3,0.1,0.6,0.1,0.9v2.6h-0.8V72c0-0.3,0-0.5-0.1-0.7c0-0.2-0.1-0.4-0.2-0.5   c-0.1-0.1-0.2-0.2-0.4-0.3c-0.2-0.1-0.3-0.1-0.6-0.1c-0.1,0-0.2,0-0.3,0c-0.1,0-0.2,0-0.3,0c-0.1,0-0.2,0-0.2,0c-0.1,0-0.1,0-0.1,0   v4h-0.8V69.9z"></path>
	<path d="M70.2,73.8c0.2,0,0.4,0,0.5,0c0.2,0,0.3,0,0.4,0v-1.4c-0.1,0-0.2-0.1-0.3-0.1c-0.1,0-0.3,0-0.5,0c-0.1,0-0.3,0-0.4,0   c-0.1,0-0.3,0.1-0.4,0.1c-0.1,0.1-0.2,0.1-0.3,0.2c-0.1,0.1-0.1,0.2-0.1,0.4c0,0.3,0.1,0.5,0.3,0.6C69.6,73.7,69.9,73.8,70.2,73.8    M70.1,69.6c0.3,0,0.6,0,0.9,0.1c0.2,0.1,0.4,0.2,0.6,0.4c0.1,0.2,0.2,0.3,0.3,0.6c0.1,0.2,0.1,0.5,0.1,0.7v2.9c-0.1,0-0.2,0-0.3,0   c-0.1,0-0.3,0-0.4,0.1c-0.2,0-0.3,0-0.5,0c-0.2,0-0.4,0-0.6,0c-0.3,0-0.5,0-0.7-0.1c-0.2-0.1-0.4-0.1-0.6-0.3   c-0.2-0.1-0.3-0.3-0.4-0.5c-0.1-0.2-0.1-0.4-0.1-0.7c0-0.3,0.1-0.5,0.2-0.7c0.1-0.2,0.2-0.3,0.4-0.4c0.2-0.1,0.4-0.2,0.6-0.3   c0.2-0.1,0.5-0.1,0.8-0.1c0.1,0,0.2,0,0.3,0c0.1,0,0.2,0,0.3,0c0.1,0,0.2,0,0.2,0c0.1,0,0.1,0,0.1,0v-0.2c0-0.1,0-0.3,0-0.4   c0-0.1-0.1-0.3-0.2-0.4c-0.1-0.1-0.2-0.2-0.3-0.3c-0.1-0.1-0.3-0.1-0.5-0.1c-0.3,0-0.5,0-0.7,0.1c-0.2,0-0.4,0.1-0.5,0.1l-0.1-0.7   c0.1,0,0.3-0.1,0.5-0.1C69.6,69.6,69.8,69.6,70.1,69.6"></path>
	<path d="M74,73.7c0.1,0,0.2,0,0.4,0.1c0.2,0,0.3,0,0.6,0c0.5,0,0.8-0.1,1.1-0.4c0.3-0.3,0.4-0.7,0.4-1.3c0-0.2,0-0.5-0.1-0.7   c0-0.2-0.1-0.4-0.2-0.5c-0.1-0.2-0.2-0.3-0.4-0.4c-0.2-0.1-0.4-0.1-0.6-0.1c-0.2,0-0.4,0-0.6,0.1c-0.2,0.1-0.3,0.2-0.4,0.2V73.7z    M74,69.9c0.1-0.1,0.3-0.1,0.5-0.2c0.2-0.1,0.4-0.1,0.7-0.1c0.3,0,0.6,0.1,0.9,0.2c0.3,0.1,0.5,0.3,0.7,0.5   c0.2,0.2,0.3,0.5,0.4,0.8c0.1,0.3,0.1,0.6,0.1,1c0,0.4-0.1,0.7-0.2,1c-0.1,0.3-0.3,0.6-0.5,0.8c-0.2,0.2-0.5,0.4-0.7,0.5   c-0.3,0.1-0.6,0.2-1,0.2c-0.4,0-0.7,0-1-0.1c-0.3-0.1-0.5-0.1-0.7-0.2v-6.7l0.8-0.1V69.9z"></path>
	<path d="M79.8,74.5c-0.5,0-0.9-0.1-1.1-0.3c-0.2-0.2-0.3-0.5-0.3-1v-5.6l0.8-0.1V73c0,0.1,0,0.3,0,0.3c0,0.1,0.1,0.2,0.1,0.2   c0.1,0.1,0.1,0.1,0.2,0.1c0.1,0,0.2,0,0.3,0.1L79.8,74.5z"></path>
	<path d="M83.7,71.6c0-0.4-0.1-0.7-0.3-0.9c-0.2-0.2-0.5-0.4-0.8-0.4c-0.2,0-0.4,0-0.5,0.1c-0.1,0.1-0.3,0.2-0.4,0.3   c-0.1,0.1-0.2,0.3-0.2,0.4c-0.1,0.2-0.1,0.3-0.1,0.5H83.7z M80.4,72.1c0-0.4,0.1-0.8,0.2-1.1c0.1-0.3,0.3-0.6,0.5-0.8   c0.2-0.2,0.4-0.4,0.7-0.5c0.3-0.1,0.5-0.2,0.8-0.2c0.6,0,1.1,0.2,1.5,0.6c0.3,0.4,0.5,1,0.5,1.8v0.1c0,0.1,0,0.1,0,0.2h-3.2   c0,0.5,0.2,0.9,0.4,1.1c0.2,0.3,0.6,0.4,1.2,0.4c0.3,0,0.5,0,0.7-0.1c0.2-0.1,0.4-0.1,0.5-0.1l0.1,0.7c-0.1,0.1-0.3,0.1-0.5,0.2   c-0.3,0.1-0.5,0.1-0.9,0.1c-0.4,0-0.8-0.1-1.1-0.2c-0.3-0.1-0.5-0.3-0.7-0.5c-0.2-0.2-0.3-0.5-0.4-0.8   C80.5,72.8,80.4,72.4,80.4,72.1"></path>
	<path d="M88.8,73.8c0.3,0,0.6,0,0.8-0.1c0.2-0.1,0.2-0.2,0.2-0.4c0-0.2-0.1-0.4-0.2-0.5c-0.2-0.1-0.4-0.3-0.8-0.4   c-0.2-0.1-0.4-0.1-0.5-0.2c-0.2-0.1-0.3-0.2-0.4-0.3c-0.1-0.1-0.2-0.2-0.3-0.4c-0.1-0.1-0.1-0.3-0.1-0.5c0-0.4,0.2-0.7,0.5-1   c0.3-0.2,0.7-0.4,1.3-0.4c0.1,0,0.3,0,0.4,0c0.1,0,0.3,0,0.4,0.1c0.1,0,0.2,0,0.3,0.1c0.1,0,0.2,0,0.2,0.1l-0.2,0.7   c-0.1,0-0.2-0.1-0.4-0.1c-0.2-0.1-0.4-0.1-0.7-0.1c-0.2,0-0.4,0-0.6,0.1c-0.2,0.1-0.3,0.2-0.3,0.4c0,0.1,0,0.2,0.1,0.3   c0,0.1,0.1,0.1,0.2,0.2c0.1,0.1,0.2,0.1,0.3,0.2c0.1,0.1,0.3,0.1,0.4,0.2c0.2,0.1,0.4,0.2,0.6,0.2c0.2,0.1,0.3,0.2,0.4,0.3   c0.1,0.1,0.2,0.2,0.3,0.4c0.1,0.2,0.1,0.3,0.1,0.6c0,0.4-0.2,0.8-0.5,1c-0.3,0.2-0.8,0.3-1.4,0.3c-0.4,0-0.7,0-1-0.1   c-0.2-0.1-0.4-0.1-0.5-0.2l0.2-0.7c0.1,0,0.2,0.1,0.5,0.2C88.2,73.8,88.4,73.8,88.8,73.8"></path>
	<path d="M94.9,72.1c0-0.5-0.1-0.9-0.4-1.3c-0.2-0.3-0.6-0.5-1-0.5s-0.7,0.2-1,0.5c-0.2,0.3-0.4,0.7-0.4,1.3c0,0.5,0.1,0.9,0.4,1.3   c0.2,0.3,0.6,0.5,1,0.5s0.7-0.2,1-0.5C94.8,73,94.9,72.6,94.9,72.1 M95.8,72.1c0,0.4-0.1,0.7-0.2,1c-0.1,0.3-0.3,0.6-0.5,0.8   c-0.2,0.2-0.4,0.4-0.7,0.5c-0.3,0.1-0.6,0.2-0.9,0.2c-0.3,0-0.6-0.1-0.9-0.2c-0.3-0.1-0.5-0.3-0.7-0.5c-0.2-0.2-0.3-0.5-0.5-0.8   c-0.1-0.3-0.2-0.6-0.2-1c0-0.4,0.1-0.7,0.2-1c0.1-0.3,0.3-0.6,0.5-0.8c0.2-0.2,0.4-0.4,0.7-0.5c0.3-0.1,0.6-0.2,0.9-0.2   c0.3,0,0.6,0.1,0.9,0.2c0.3,0.1,0.5,0.3,0.7,0.5c0.2,0.2,0.3,0.5,0.5,0.8C95.7,71.4,95.8,71.7,95.8,72.1"></path>
	<path d="M98.3,74.5c-0.5,0-0.9-0.1-1.1-0.3c-0.2-0.2-0.3-0.5-0.3-1v-5.6l0.8-0.1V73c0,0.1,0,0.3,0,0.3c0,0.1,0.1,0.2,0.1,0.2   c0.1,0.1,0.1,0.1,0.2,0.1c0.1,0,0.2,0,0.3,0.1L98.3,74.5z"></path>
	<path d="M102.9,74.3c-0.2,0-0.4,0.1-0.8,0.2c-0.3,0.1-0.7,0.1-1.1,0.1c-0.4,0-0.7-0.1-0.9-0.2c-0.2-0.1-0.4-0.3-0.6-0.4   c-0.2-0.2-0.3-0.4-0.3-0.7c-0.1-0.3-0.1-0.6-0.1-0.9v-2.6h0.8v2.4c0,0.6,0.1,1,0.3,1.2c0.2,0.2,0.5,0.4,0.9,0.4c0.1,0,0.2,0,0.3,0   c0.1,0,0.2,0,0.3,0c0.1,0,0.2,0,0.2,0c0.1,0,0.1,0,0.1,0v-4h0.8V74.3z"></path>
	<path d="M105,69.7h1.8v0.7H105v2.2c0,0.2,0,0.4,0.1,0.6c0,0.2,0.1,0.3,0.2,0.4c0.1,0.1,0.2,0.1,0.3,0.2c0.1,0,0.2,0.1,0.4,0.1   c0.3,0,0.5,0,0.6-0.1c0.2-0.1,0.3-0.1,0.3-0.1l0.2,0.7c-0.1,0-0.2,0.1-0.4,0.2c-0.2,0.1-0.4,0.1-0.7,0.1c-0.3,0-0.6,0-0.8-0.1   c-0.2-0.1-0.4-0.2-0.5-0.4c-0.1-0.2-0.2-0.4-0.3-0.6c-0.1-0.2-0.1-0.5-0.1-0.8v-4.2l0.8-0.1V69.7z"></path>
	<path d="M108.6,74.4h-0.8v-4.7h0.8V74.4z M108.2,68.9c-0.2,0-0.3,0-0.4-0.1c-0.1-0.1-0.2-0.2-0.2-0.4c0-0.2,0.1-0.3,0.2-0.4   c0.1-0.1,0.2-0.1,0.4-0.1c0.2,0,0.3,0.1,0.4,0.1c0.1,0.1,0.2,0.2,0.2,0.4c0,0.2-0.1,0.3-0.2,0.4C108.5,68.8,108.3,68.9,108.2,68.9"></path>
	<path d="M113.2,72.1c0-0.5-0.1-0.9-0.4-1.3c-0.2-0.3-0.6-0.5-1-0.5s-0.7,0.2-1,0.5c-0.2,0.3-0.4,0.7-0.4,1.3c0,0.5,0.1,0.9,0.4,1.3   c0.2,0.3,0.6,0.5,1,0.5s0.7-0.2,1-0.5C113.1,73,113.2,72.6,113.2,72.1 M114.1,72.1c0,0.4-0.1,0.7-0.2,1c-0.1,0.3-0.3,0.6-0.5,0.8   c-0.2,0.2-0.4,0.4-0.7,0.5c-0.3,0.1-0.6,0.2-0.9,0.2c-0.3,0-0.6-0.1-0.9-0.2c-0.3-0.1-0.5-0.3-0.7-0.5c-0.2-0.2-0.3-0.5-0.5-0.8   c-0.1-0.3-0.2-0.6-0.2-1c0-0.4,0.1-0.7,0.2-1c0.1-0.3,0.3-0.6,0.5-0.8c0.2-0.2,0.4-0.4,0.7-0.5c0.3-0.1,0.6-0.2,0.9-0.2   c0.3,0,0.6,0.1,0.9,0.2c0.3,0.1,0.5,0.3,0.7,0.5c0.2,0.2,0.3,0.5,0.5,0.8C114,71.4,114.1,71.7,114.1,72.1"></path>
	<path d="M115.1,69.9c0.2,0,0.4-0.1,0.8-0.2c0.3-0.1,0.7-0.1,1.1-0.1c0.4,0,0.7,0.1,0.9,0.2c0.2,0.1,0.4,0.3,0.6,0.4   c0.1,0.2,0.3,0.4,0.3,0.7c0.1,0.3,0.1,0.6,0.1,0.9v2.6h-0.8V72c0-0.3,0-0.5-0.1-0.7c0-0.2-0.1-0.4-0.2-0.5   c-0.1-0.1-0.2-0.2-0.4-0.3c-0.2-0.1-0.3-0.1-0.6-0.1c-0.1,0-0.2,0-0.3,0c-0.1,0-0.2,0-0.3,0c-0.1,0-0.2,0-0.2,0c-0.1,0-0.1,0-0.1,0   v4h-0.8V69.9z"></path>
	<path d="M121.3,73.8c0.3,0,0.6,0,0.8-0.1c0.2-0.1,0.2-0.2,0.2-0.4c0-0.2-0.1-0.4-0.2-0.5c-0.2-0.1-0.4-0.3-0.8-0.4   c-0.2-0.1-0.4-0.1-0.5-0.2c-0.2-0.1-0.3-0.2-0.4-0.3c-0.1-0.1-0.2-0.2-0.3-0.4c-0.1-0.1-0.1-0.3-0.1-0.5c0-0.4,0.2-0.7,0.5-1   c0.3-0.2,0.7-0.4,1.3-0.4c0.1,0,0.3,0,0.4,0c0.1,0,0.3,0,0.4,0.1c0.1,0,0.2,0,0.3,0.1c0.1,0,0.2,0,0.2,0.1l-0.2,0.7   c-0.1,0-0.2-0.1-0.4-0.1c-0.2-0.1-0.4-0.1-0.7-0.1c-0.2,0-0.4,0-0.6,0.1c-0.2,0.1-0.3,0.2-0.3,0.4c0,0.1,0,0.2,0.1,0.3   c0,0.1,0.1,0.1,0.2,0.2c0.1,0.1,0.2,0.1,0.3,0.2c0.1,0.1,0.3,0.1,0.4,0.2c0.2,0.1,0.4,0.2,0.6,0.2c0.2,0.1,0.3,0.2,0.4,0.3   c0.1,0.1,0.2,0.2,0.3,0.4c0.1,0.2,0.1,0.3,0.1,0.6c0,0.4-0.2,0.8-0.5,1c-0.3,0.2-0.8,0.3-1.4,0.3c-0.4,0-0.7,0-1-0.1   c-0.2-0.1-0.4-0.1-0.5-0.2l0.2-0.7c0.1,0,0.2,0.1,0.5,0.2C120.7,73.8,120.9,73.8,121.3,73.8"></path>
	<path class="st0" d="M141.2,25.9c-0.3,0.3-0.4,0.7-0.4,1.1v14c0,0.1,0.1,0.1,0.1,0.1c0.1,0,0.1,0,0.1-0.1l10.2-25.7c0,0,0,0,0-0.1   c0-0.1-0.1-0.1-0.1-0.1c0,0-0.1,0-0.1,0L141.2,25.9z"></path>
	<path class="st0" d="M123.5,15.5C123.4,15.5,123.4,15.5,123.5,15.5c-0.2,0-0.2,0-0.2,0.1c0,0,0,0.1,0,0.1l9.4,11.3   c0.1,0.1,0.2,0.1,0.3,0.1c0,0,0.1,0,0.1,0l4-1.3c0.1,0,0.2-0.1,0.2-0.3c0-0.1,0-0.2-0.1-0.2L123.5,15.5z"></path>
	<path class="st0" d="M150.9,12.4c0,0,0.1-0.1,0.1-0.1c0-0.1-0.1-0.2-0.2-0.2h-28.1c-0.1,0-0.2,0.1-0.2,0.2c0,0.1,0,0.1,0.1,0.2   L138.7,24c0.2,0.2,0.5,0.2,0.8,0.2c0.4,0,0.8-0.2,1-0.4L150.9,12.4z"></path>
	<path class="st0" d="M138.3,27.4c0,0,0.1,0,0.1,0c0.2,0,0.4,0.2,0.4,0.4V41c0,0.1-0.1,0.1-0.1,0.1c-0.1,0-0.1,0-0.1-0.1l-4.7-11.9   c0,0,0-0.1,0-0.1c0-0.1,0.1-0.2,0.2-0.3L138.3,27.4z"></path>
	<path d="M108.4,24.5l6.2-1V30h5.6l2.1,5.2h-7.7v7.7c0,1.3,0.2,2.4,0.7,3.1c0.5,0.8,1.4,1.2,2.8,1.2c0.7,0,1.4-0.1,2.1-0.2   c0.7-0.1,1.4-0.3,1.9-0.5l0.9,4.9c-0.8,0.3-1.6,0.6-2.5,0.8c-0.9,0.2-2.1,0.3-3.4,0.3c-1.7,0-3.1-0.2-4.2-0.7   c-1.1-0.5-2-1.1-2.7-1.9c-0.7-0.8-1.1-1.8-1.4-3c-0.3-1.2-0.4-2.5-0.4-3.9V24.5z"></path>
	<path d="M17.1,40.3c0-2-0.3-3.4-0.8-4.3c-0.5-0.8-1.4-1.3-2.7-1.3c-0.4,0-0.8,0-1.2,0.1c-0.4,0-0.8,0.1-1.2,0.1v17H5V30.7   c0.5-0.1,1.2-0.3,1.9-0.4c0.7-0.2,1.5-0.3,2.3-0.4c0.8-0.1,1.6-0.2,2.4-0.3c0.8-0.1,1.7-0.1,2.5-0.1c1.6,0,2.9,0.2,3.9,0.6   c1,0.4,1.8,0.9,2.4,1.4c0.9-0.6,1.9-1.1,3.1-1.5c1.2-0.4,2.2-0.5,3.2-0.5c1.8,0,3.2,0.2,4.3,0.7c1.1,0.5,2,1.2,2.7,2.1   c0.7,0.9,1.1,2,1.4,3.2c0.3,1.2,0.4,2.6,0.4,4.1V52h-6.2V40.3c0-2-0.3-3.4-0.8-4.3c-0.5-0.8-1.4-1.3-2.7-1.3   c-0.3,0-0.8,0.1-1.4,0.2c-0.6,0.2-1.1,0.4-1.5,0.6c0.2,0.6,0.3,1.3,0.4,2c0.1,0.7,0.1,1.5,0.1,2.3v12h-6.2V40.3z"></path>
	<path d="M73.7,47.6c0.6,0,1.2,0,1.8,0c0.6,0,1-0.1,1.3-0.1v-4.7c-0.3-0.1-0.6-0.1-1.1-0.2c-0.5-0.1-1-0.1-1.4-0.1   c-0.6,0-1.1,0-1.7,0.1c-0.5,0.1-1,0.2-1.4,0.4c-0.4,0.2-0.7,0.5-0.9,0.8c-0.2,0.3-0.3,0.8-0.3,1.3c0,1,0.3,1.7,1,2   C71.7,47.4,72.6,47.6,73.7,47.6 M73.2,29.4c1.8,0,3.4,0.2,4.6,0.6c1.2,0.4,2.2,1,2.9,1.8c0.7,0.8,1.3,1.7,1.6,2.8   c0.3,1.1,0.5,2.4,0.5,3.7v13c-0.9,0.2-2.1,0.4-3.7,0.7c-1.6,0.3-3.5,0.4-5.8,0.4c-1.4,0-2.7-0.1-3.9-0.4c-1.2-0.3-2.2-0.7-3-1.2   c-0.8-0.6-1.5-1.3-1.9-2.2c-0.4-0.9-0.7-2.1-0.7-3.4c0-1.3,0.3-2.4,0.8-3.3c0.5-0.9,1.2-1.6,2.1-2.1c0.9-0.5,1.9-0.9,3-1.2   c1.1-0.2,2.3-0.4,3.5-0.4c0.8,0,1.5,0,2.2,0.1c0.6,0.1,1.1,0.2,1.5,0.3v-0.6c0-1.1-0.3-1.9-1-2.6c-0.6-0.6-1.8-1-3.3-1   c-1.1,0-2.1,0.1-3.1,0.2c-1,0.2-1.9,0.4-2.7,0.6l-0.8-5c0.4-0.1,0.8-0.2,1.4-0.4c0.5-0.1,1.1-0.2,1.8-0.3c0.6-0.1,1.3-0.2,2-0.3   C71.8,29.4,72.5,29.4,73.2,29.4"></path>
	<path d="M87.2,41c0-1.6,0.3-3.1,0.8-4.5c0.5-1.4,1.3-2.6,2.2-3.7c1-1,2.2-1.9,3.6-2.5c1.4-0.6,3-0.9,4.8-0.9c1.2,0,2.2,0.1,3.2,0.3   c1,0.2,1.9,0.5,2.8,0.9l-1.3,5c-0.6-0.2-1.2-0.4-1.9-0.6c-0.7-0.2-1.5-0.3-2.3-0.3c-1.8,0-3.2,0.6-4.1,1.7   c-0.9,1.1-1.4,2.7-1.4,4.5c0,2,0.4,3.5,1.3,4.6c0.8,1.1,2.3,1.6,4.5,1.6c0.8,0,1.6-0.1,2.4-0.2c0.9-0.1,1.7-0.4,2.4-0.7l0.9,5.1   c-0.7,0.3-1.6,0.6-2.7,0.8c-1.1,0.2-2.3,0.3-3.6,0.3c-2,0-3.7-0.3-5.2-0.9c-1.4-0.6-2.6-1.4-3.6-2.4c-0.9-1-1.6-2.3-2-3.7   C87.4,44.2,87.2,42.6,87.2,41"></path>
</g>
</svg>
