<?xml version="1.0" standalone="no"?>
<!DOCTYPE svg PUBLIC "-//W3C//DTD SVG 20010904//EN"
 "http://www.w3.org/TR/2001/REC-SVG-20010904/DTD/svg10.dtd">
<svg version="1.0" xmlns="http://www.w3.org/2000/svg"
 width="260.000000pt" height="260.000000pt" viewBox="0 0 260.000000 260.000000"
 preserveAspectRatio="xMidYMid meet">
<metadata>
Created by potrace 1.14, written by Peter Selinger 2001-2017
</metadata>
<g transform="translate(0.000000,260.000000) scale(0.100000,-0.100000)"
fill="#000000" stroke="none">
<path d="M860 2337 c-19 -7 -125 -53 -235 -103 -221 -98 -261 -127 -288 -208
-14 -41 -16 -119 -17 -591 l0 -544 57 -11 c32 -7 90 -19 128 -28 l70 -17 1
-36 c3 -69 32 -144 71 -186 40 -43 58 -51 223 -108 58 -20 112 -39 120 -42 8
-3 20 -7 26 -8 14 -3 133 -45 159 -55 22 -10 249 -88 363 -126 44 -14 96 -24
131 -24 60 0 64 1 326 119 22 10 69 31 105 46 75 33 123 73 153 130 22 39 22
47 24 597 l3 558 -28 6 c-15 3 -35 8 -44 11 -10 2 -28 6 -40 9 -13 2 -34 7
-48 10 -14 3 -41 9 -60 13 -34 6 -35 7 -45 76 -12 80 -49 161 -85 187 -14 10
-149 60 -300 112 -151 51 -282 96 -290 99 -127 48 -356 119 -395 122 -28 3
-65 -1 -85 -8z m235 -543 c11 -1 61 -10 110 -19 86 -14 120 -20 175 -30 14 -3
42 -8 63 -11 29 -5 37 -11 38 -28 0 -11 1 -170 1 -353 l1 -331 57 -7 58 -7 0
-110 0 -110 -37 5 c-20 3 -79 13 -131 22 -52 9 -111 18 -130 21 -19 3 -42 7
-50 9 -8 2 -35 7 -60 11 -25 3 -52 7 -60 9 -13 2 -15 45 -17 311 -2 449 1 404
-25 404 -13 0 -39 1 -58 2 l-35 1 1 106 c1 58 2 110 3 115 0 4 18 5 39 1 20
-4 46 -9 57 -11z"/>
</g>
</svg>
