<svg width="32" height="32" viewBox="0 0 32 32" fill="none" xmlns="http://www.w3.org/2000/svg">
<path fill-rule="evenodd" clip-rule="evenodd" d="M16.3256 0.800049C25.0887 0.800049 30.2502 6.48301 30.2502 15.9733C30.2502 25.5166 25.0887 31.2 16.3256 31.2C7.562 31.2 2.40002 25.5166 2.40002 15.9733C2.40002 6.48301 7.562 0.800049 16.3256 0.800049Z" fill="#F5D400"/>
<path fill-rule="evenodd" clip-rule="evenodd" d="M16.3256 29.484C8.8522 29.484 5.84131 22.9428 5.84131 15.9732C5.84131 9.00311 8.8522 2.46191 16.3256 2.46191C23.7984 2.46191 26.8093 9.00311 26.8093 15.9732C26.8093 22.9428 23.7984 29.484 16.3256 29.484Z" fill="#F2B300"/>
<path fill-rule="evenodd" clip-rule="evenodd" d="M21.9707 10.3435C25.6805 14.0432 27.6698 19.1902 23.5836 23.2652C19.4974 27.2862 14.3359 25.3025 10.6802 21.6563C6.97029 17.9571 4.98108 12.8101 9.06725 8.73507C13.0993 4.66052 18.3149 6.64424 21.9707 10.3435Z" fill="#E86E18"/>
<path fill-rule="evenodd" clip-rule="evenodd" d="M12.3467 12.0595C15.0349 9.37865 18.637 8.09203 21.433 10.8795C24.2825 13.6679 22.9382 17.26 20.3041 19.9409C17.6159 22.5681 14.0137 23.9083 11.2178 21.1204C8.36823 18.2784 9.7126 14.6863 12.3467 12.0595Z" fill="#D30021"/>
<path fill-rule="evenodd" clip-rule="evenodd" d="M16.3256 19.6189C14.0137 19.6189 11.7018 18.6005 11.7018 15.9732C11.7018 13.3995 14.0137 12.3806 16.3256 12.3806C18.637 12.3806 20.9489 13.3995 20.9489 15.9732C20.9489 18.6005 18.637 19.6189 16.3256 19.6189Z" fill="#371071"/>
</svg>
