<svg xmlns="http://www.w3.org/2000/svg" xmlns:xlink="http://www.w3.org/1999/xlink" width="126" height="134" viewBox="0 0 126 134"><defs><clipPath id="clip-path"><rect id="Rectangle_12" data-name="Rectangle 12" width="126" height="134" fill="#fff"></rect></clipPath></defs><g id="Mask_Group_3" data-name="Mask Group 3" clip-path="url(#clip-path)"><g id="Group_27" data-name="Group 27" transform="translate(19.96 25.208)"><path id="Path_10" data-name="Path 10" d="M417.209,320.916l-19.742,21V300.7a42.78,42.78,0,0,1,19.742,20.214" transform="translate(-335.045 -296.161)" fill="#0d3b6b"></path><path id="Path_11" data-name="Path 11" d="M416.5,302.631v27.156l-27.1-28.824a43.949,43.949,0,0,1,27.1,1.668" transform="translate(-357.388 -299.569)" fill="#009dc5"></path><path id="Path_12" data-name="Path 12" d="M405.251,300.194l17.941,19.076h-40.83a42.954,42.954,0,0,1,22.889-19.076" transform="translate(-376.87 -297.689)" fill="#0d3b6b"></path><path id="Path_13" data-name="Path 13" d="M384.6,305.831h27.834l-29.164,31.02a41.759,41.759,0,0,1,1.33-31.02" transform="translate(-380.905 -280.731)" fill="#009dc5"></path><path id="Path_14" data-name="Path 14" d="M381.9,330.106l19.633-20.879v41.181a42.777,42.777,0,0,1-19.633-20.3" transform="translate(-378.139 -270.515)" fill="#0d3b6b"></path><path id="Path_15" data-name="Path 15" d="M387.981,340.095V313.147l27.062,28.78a43.98,43.98,0,0,1-27.062-1.832" transform="translate(-361.312 -258.722)" fill="#0d3b6b"></path><path id="Path_16" data-name="Path 16" d="M409.272,334.343l-17.9-19.035h40.991a42.977,42.977,0,0,1-23.092,19.035" transform="translate(-351.919 -252.222)" fill="#009dc5"></path><path id="Path_17" data-name="Path 17" d="M423.26,337.776H395.328L424.6,306.644a41.743,41.743,0,0,1-1.342,31.132" transform="translate(-340.968 -278.285)" fill="#0d3b6b"></path></g></g></svg>