<?xml version="1.0" encoding="utf-8"?>
<!-- Generator: Adobe Illustrator 23.0.4, SVG Export Plug-In . SVG Version: 6.00 Build 0)  -->
<svg version="1.1" id="Layer_1" xmlns="http://www.w3.org/2000/svg" xmlns:xlink="http://www.w3.org/1999/xlink" x="0px" y="0px"
	 viewBox="0 0 850.39 850.39" style="enable-background:new 0 0 850.39 850.39;" xml:space="preserve">
<style type="text/css">
	.st0{clip-path:url(#SVGID_2_);fill:url(#SVGID_3_);}
	.st1{clip-path:url(#SVGID_5_);fill:url(#SVGID_6_);}
	.st2{clip-path:url(#SVGID_8_);fill:url(#SVGID_9_);}
	.st3{clip-path:url(#SVGID_11_);fill:url(#SVGID_12_);}
	.st4{fill:#FFFFFF;}
</style>
<g>
</g>
<g>
	<defs>
		<circle id="SVGID_1_" cx="426" cy="425.2" r="422.4"/>
	</defs>
	<clipPath id="SVGID_2_">
		<use xlink:href="#SVGID_1_"  style="overflow:visible;"/>
	</clipPath>
	
		<linearGradient id="SVGID_3_" gradientUnits="userSpaceOnUse" x1="0.0202" y1="852.138" x2="4.7753" y2="852.138" gradientTransform="matrix(177.6635 0 0 -177.6635 0 151819.0312)">
		<stop  offset="0" style="stop-color:#5B2670"/>
		<stop  offset="0.4424" style="stop-color:#7A378D"/>
		<stop  offset="0.7627" style="stop-color:#7B3A8D"/>
		<stop  offset="1" style="stop-color:#78368A"/>
		<stop  offset="1" style="stop-color:#8D5B9D"/>
	</linearGradient>
	<rect x="3.6" y="2.8" class="st0" width="844.8" height="844.8"/>
</g>
<g>
	<defs>
		<polygon id="SVGID_4_" points="740.73,324.86 740.73,263.22 483.86,263.22 483.86,324.82 599.69,324.82 599.69,495.94 
			675.05,495.94 674.94,324.82 		"/>
	</defs>
	<clipPath id="SVGID_5_">
		<use xlink:href="#SVGID_4_"  style="overflow:visible;"/>
	</clipPath>
	
		<linearGradient id="SVGID_6_" gradientUnits="userSpaceOnUse" x1="9.8457" y1="859.1559" x2="14.6007" y2="859.1559" gradientTransform="matrix(43.0151 0 0 -43.0151 111.8277 37336.2617)">
		<stop  offset="0" style="stop-color:#D1D3D4"/>
		<stop  offset="0.4424" style="stop-color:#E6E7E8"/>
		<stop  offset="0.7302" style="stop-color:#F1F2F2"/>
		<stop  offset="0.9903" style="stop-color:#FFFFFF"/>
		<stop  offset="1" style="stop-color:#FFFFFF"/>
	</linearGradient>
	<rect x="483.86" y="263.22" class="st1" width="256.86" height="232.72"/>
</g>
<g>
	<defs>
		<path id="SVGID_7_" d="M483.76,263.23v133.35c0,22.67-14.27,36.91-32.74,36.91c-18.81,0-35.01-14.57-35.01-36.91V263.23h-75.2
			v133.35c0,60.22,43.76,99.39,109.88,99.39c65.8,0,108.27-39.18,108.27-99.39V263.23H483.76z"/>
	</defs>
	<clipPath id="SVGID_8_">
		<use xlink:href="#SVGID_7_"  style="overflow:visible;"/>
	</clipPath>
	
		<linearGradient id="SVGID_9_" gradientUnits="userSpaceOnUse" x1="5.8829" y1="858.6613" x2="10.6379" y2="858.6613" gradientTransform="matrix(45.8782 0 0 -45.8782 70.9179 39773.4766)">
		<stop  offset="0" style="stop-color:#D1D3D4"/>
		<stop  offset="0.4424" style="stop-color:#E6E7E8"/>
		<stop  offset="0.7302" style="stop-color:#F1F2F2"/>
		<stop  offset="0.9903" style="stop-color:#FFFFFF"/>
		<stop  offset="1" style="stop-color:#FFFFFF"/>
	</linearGradient>
	<rect x="340.81" y="263.23" class="st2" width="218.15" height="232.75"/>
</g>
<g>
	<defs>
		<path id="SVGID_10_" d="M188.41,379.2c0-31.12,22.37-53.48,48.62-53.48c25.93,0,46.68,22.37,46.68,53.48
			c0,31.12-20.75,54.14-46.68,54.14C211.1,433.34,188.41,410.32,188.41,379.2 M111.27,378.88c0,67.74,52.51,117.02,124.8,117.02
			s124.8-49.59,124.8-117.02c0-67.1-52.51-115.72-124.8-115.72S111.27,311.46,111.27,378.88"/>
	</defs>
	<clipPath id="SVGID_11_">
		<use xlink:href="#SVGID_10_"  style="overflow:visible;"/>
	</clipPath>
	
		<linearGradient id="SVGID_12_" gradientUnits="userSpaceOnUse" x1="1.6883" y1="857.6974" x2="6.4434" y2="857.6974" gradientTransform="matrix(52.4907 0 0 -52.4907 22.6428 45400.6641)">
		<stop  offset="0" style="stop-color:#D1D3D4"/>
		<stop  offset="0.4424" style="stop-color:#E6E7E8"/>
		<stop  offset="0.7302" style="stop-color:#F1F2F2"/>
		<stop  offset="0.9903" style="stop-color:#FFFFFF"/>
		<stop  offset="1" style="stop-color:#FFFFFF"/>
	</linearGradient>
	<rect x="111.27" y="263.16" class="st3" width="249.6" height="232.74"/>
</g>
<g>
	<path class="st4" d="M674.02,538.79v-8.91h-42.03v58.85h43.04v-8.91h-33.12V563.6h28.75v-8.91h-28.75v-15.89H674.02z
		 M586.85,529.63c-17.4,0-30.94,12.86-30.94,29.6c0,16.89,13.37,29.92,30.6,29.92c8.32,0,16.81-3.78,22.78-9.67l-5.88-6.56
		c-4.46,4.29-10.51,6.98-16.4,6.98c-11.77,0-21.02-9.16-21.02-20.77c0-11.6,9.25-20.68,21.02-20.68c5.97,0,12.11,2.86,16.4,7.48
		l5.8-7.23C603.49,533.08,595.17,529.63,586.85,529.63 M532.63,588.73v-58.85h-9.75v42.29l-31.53-42.29h-9.75v58.85h9.92v-42.2
		l31.36,42.2H532.63z M441.16,566.62h-22.2l11.1-26.14L441.16,566.62z M444.94,575.45l5.63,13.28h10.59l-25.72-58.85h-10.17
		l-25.98,58.85h10.34l5.63-13.28H444.94z M343.48,562.08v-23.29h13.96c9.08,0,14.29,3.7,14.29,11.44c0,7.98-5.21,11.85-14.29,11.85
		H343.48z M370.88,588.73h11.26l-13.2-19.67c7.82-3.02,12.19-9.67,12.19-19.08c0-12.78-8.66-20.09-23.71-20.09h-23.88v58.85h9.92
		V571h13.96c0.92,0,1.85,0,2.69-0.09L370.88,588.73z M306.74,529.88h-9.92v34.47c0,10-5.97,15.89-15.55,15.89
		c-9.67,0-15.81-5.97-15.81-15.89v-34.47h-9.92v34.47c0,15.38,9.75,24.8,25.64,24.8c15.89,0,25.55-9.41,25.55-24.8V529.88z
		 M211.16,529.47c-12.78,0-21.44,6.31-21.44,16.39c0,20.94,31.78,13.62,31.78,26.74c0,4.54-4.12,7.14-11.01,7.14
		c-6.31,0-13.88-3.02-19.92-8.57l-4.29,8.57c6.05,5.55,14.79,9.33,24.04,9.33c12.95,0,22.2-6.48,22.2-16.98
		c0.08-21.18-31.7-14.29-31.7-27.15c0-3.95,3.79-6.14,9.59-6.14c4.46,0,10.85,1.6,17.23,5.47l4.12-8.74
		C226.29,531.9,218.81,529.47,211.16,529.47"/>
</g>
</svg>
