<?xml version="1.0" standalone="no"?>
<!DOCTYPE svg PUBLIC "-//W3C//DTD SVG 20010904//EN"
 "http://www.w3.org/TR/2001/REC-SVG-20010904/DTD/svg10.dtd">
<svg version="1.0" xmlns="http://www.w3.org/2000/svg"
 width="260.000000pt" height="260.000000pt" viewBox="0 0 260.000000 260.000000"
 preserveAspectRatio="xMidYMid meet">
<metadata>
Created by potrace 1.14, written by Peter Selinger 2001-2017
</metadata>
<g transform="translate(0.000000,260.000000) scale(0.100000,-0.100000)"
fill="#000000" stroke="none">
<path d="M144 2581 c-48 -22 -95 -65 -121 -112 -17 -32 -18 -89 -20 -1160 l-3
-1125 26 -52 c28 -57 87 -107 146 -122 24 -7 432 -9 1150 -8 l1113 3 40 26
c58 38 86 72 104 126 15 43 16 160 15 1153 -1 1037 -2 1108 -18 1148 -24 55
-94 117 -151 131 -32 8 -361 11 -1142 11 -1046 -1 -1100 -1 -1139 -19z m1611
-365 c164 -18 259 -77 338 -209 118 -196 123 -637 10 -860 -36 -73 -136 -168
-198 -190 -109 -38 -178 -43 -562 -42 -205 0 -373 -2 -374 -5 0 -3 -1 -108 -3
-235 -2 -239 -6 -263 -46 -285 -29 -16 -341 -13 -362 4 -44 33 -43 21 -41 906
0 465 1 850 2 856 2 24 38 56 69 62 42 9 1088 7 1167 -2z"/>
<path d="M970 1570 l0 -280 303 0 c167 0 317 4 336 10 82 23 122 104 124 247
2 178 -28 254 -115 291 -18 7 -129 11 -337 12 l-311 1 0 -281z"/>
</g>
</svg>
