<svg xmlns="http://www.w3.org/2000/svg" width="96" height="96" viewBox="0 0 96 96">
  <g id="favicon_96x96-svg" data-name="favicon@96x96-svg" transform="translate(19.284 11.266)">
    <rect id="Rectangle_507" data-name="Rectangle 507" width="96" height="96" rx="8" transform="translate(-19.284 -11.266)" fill="#00654e"/>
    <path id="Path_909" data-name="Path 909" d="M14.575,4.857a7.885,7.885,0,1,0,7.886,7.886,7.886,7.886,0,0,0-7.886-7.886" transform="translate(14.166 13.021)" fill="#fff"/>
    <path id="Path_910" data-name="Path 910" d="M54.526,24.855h0a2.556,2.556,0,0,0-.755-1.634A13.138,13.138,0,0,1,50.6,18.027,22.481,22.481,0,0,0,33.67,2.875a23.422,23.422,0,0,0-9.046,0A22.482,22.482,0,0,0,7.7,18.027a13.113,13.113,0,0,1-3.172,5.194,2.567,2.567,0,0,0-.755,1.634v0a2.567,2.567,0,0,0,.755,1.632A13.113,13.113,0,0,1,7.7,31.686,22.5,22.5,0,0,0,21.047,45.8a.928.928,0,0,1,.592.944c-.3,3.774-2.271,5.283-5.37,6.309a22.1,22.1,0,0,1-2.888.706,7.8,7.8,0,1,0,9.144,8.756c.042-.278.091-.966.1-1.024.158-3.5,2.222-6.082,5.2-6.744a6.153,6.153,0,0,1,2.658,0c2.977.661,5.04,3.242,5.2,6.744,0,.058.051.746.093,1.024a7.8,7.8,0,1,0,9.143-8.756,21.779,21.779,0,0,1-2.888-.708c-3.1-1.024-5.067-2.534-5.37-6.309a.929.929,0,0,1,.592-.944A22.483,22.483,0,0,0,50.6,31.686a13.139,13.139,0,0,1,3.173-5.194,2.556,2.556,0,0,0,.755-1.632h0v0M28.914,38.463A13.9,13.9,0,0,1,15.565,24.858,13.9,13.9,0,0,1,28.914,11.251a13.609,13.609,0,1,1,0,27.212" transform="translate(-0.432 0.905)" fill="#fff"/>
  </g>
</svg>
