<svg width="69" height="25" viewBox="0 0 69 25" fill="none" xmlns="http://www.w3.org/2000/svg">
<path fill-rule="evenodd" clip-rule="evenodd" d="M38.0781 22.1215C37.673 22.1215 36.9617 21.9688 36.7661 20.9675C36.7306 20.779 36.714 20.5237 36.714 20.2129L36.7157 16.4103H38.9017L38.8993 14.1021H36.7671L36.7745 10.5444H33.8042L33.7989 20.645C33.7976 21.0293 33.8311 21.4009 33.8985 21.752C34.0469 22.5111 34.3723 23.1351 34.8635 23.595C35.2895 24.0023 35.7278 24.2812 36.1661 24.4304C36.6141 24.5832 37.0633 24.6599 37.5003 24.6599C38.4487 24.6599 39.324 24.4277 40.1033 23.9693L39.7813 21.5024C39.1773 21.9111 38.6075 22.1215 38.0781 22.1215Z" fill="#001F5B"/>
<path fill-rule="evenodd" clip-rule="evenodd" d="M26.2423 16.8962C26.622 16.615 27.0428 16.4734 27.4895 16.4734C27.9352 16.4734 28.7104 16.6375 28.8815 17.7511C28.9091 17.9298 28.9214 18.0687 28.9181 18.172L28.9091 24.4896H31.8728L31.8644 18.3851C31.8495 17.8379 31.8276 17.4435 31.7974 17.247C31.6824 16.5005 31.3602 15.8069 30.8382 15.1776C30.3396 14.578 29.594 14.2856 28.5623 14.2856C27.8828 14.2856 27.3251 14.3987 26.9109 14.6191C26.4645 14.8573 25.9464 15.2069 25.3725 15.6521L24.8338 16.0643L24.8271 14.4755H21.8906L21.8946 24.4878L24.8162 24.4896L24.8174 18.2383L24.9065 18.1469C25.4588 17.5613 25.9082 17.1418 26.2423 16.8962Z" fill="#001F5B"/>
<path fill-rule="evenodd" clip-rule="evenodd" d="M51.1371 24.4695L51.1361 14.5742C50.4332 14.4713 49.8982 14.3993 49.5121 14.3571C49.0794 14.3086 48.5219 14.2856 47.8538 14.2856C46.2832 14.2856 44.9776 14.4845 43.975 14.8743C42.9932 15.2569 42.2581 15.7588 41.7902 16.3652C41.3138 16.9811 41.0172 17.6306 40.9019 18.2971C40.7819 18.9809 40.7738 19.66 40.8731 20.3147C40.9951 21.1002 41.2663 21.8336 41.6765 22.4962C42.0885 23.1568 42.6111 23.6879 43.2352 24.0804C43.8466 24.4643 44.5213 24.6597 45.2366 24.6597C45.7921 24.6597 46.2349 24.5711 46.5443 24.3967C46.8844 24.2059 47.2304 23.9396 47.577 23.6054L48.1562 23.0458L48.1592 24.472L51.1371 24.4695ZM48.0417 21.6329C47.6404 21.9091 47.2271 22.1926 46.9201 22.3227C46.6033 22.4541 46.3004 22.5222 46.0215 22.5222C45.4502 22.5222 44.9693 22.3127 44.5958 21.9037C44.2469 21.5207 44.0277 21.0536 43.9469 20.5153C43.8283 19.7628 43.8876 19.051 44.1162 18.4005C44.3468 17.7358 44.7396 17.2 45.281 16.8062C45.825 16.4086 46.4709 16.2076 47.199 16.2076H48.2133L48.2106 21.5074L48.0417 21.6329Z" fill="#001F5B"/>
<path fill-rule="evenodd" clip-rule="evenodd" d="M65.9903 17.7407C66.0233 17.9472 66.0393 18.2106 66.0437 18.5267L66.048 24.4896H68.9986L69.0002 18.5944C68.9936 17.9246 68.9715 17.4391 68.9315 17.1856C68.8254 16.4802 68.4951 15.8076 67.9517 15.1822C67.4326 14.5879 66.5794 14.2856 65.4121 14.2856C64.936 14.2856 64.5027 14.3631 64.128 14.5092C63.7403 14.6614 63.4081 14.8453 63.1368 15.0551C62.8563 15.2703 62.608 15.4991 62.4009 15.7354L62.1076 16.0642L61.8654 15.6983C61.2362 14.7494 60.3748 14.2856 59.2295 14.2856C58.6402 14.2856 58.0928 14.4234 57.6024 14.6939C57.0976 14.9758 56.6933 15.2847 56.4053 15.6096L55.8232 16.2652L55.8125 14.4755H52.8927L52.8887 24.4896H55.8125L55.8232 17.9406L55.9056 17.8481C56.353 17.3591 56.7299 17.0083 57.0523 16.7681C57.4142 16.5014 57.7926 16.3678 58.1779 16.3678C58.5688 16.3678 58.8672 16.4836 59.07 16.7099C59.2461 16.9092 59.3653 17.1935 59.421 17.5508C59.4513 17.7434 59.466 18.1491 59.4717 18.8311L59.4747 24.4738H62.4032L62.3939 17.6872L62.4872 17.5958C63.3323 16.7681 64.051 16.3678 64.6868 16.3678C65.0955 16.3678 65.8081 16.545 65.9903 17.7407Z" fill="#001F5B"/>
<path fill-rule="evenodd" clip-rule="evenodd" d="M20.141 24.4693L20.1387 14.5754C19.4349 14.4717 18.9022 14.4017 18.5168 14.3595C18.0838 14.312 17.5255 14.2861 16.8569 14.2861C15.2871 14.2861 13.9813 14.4844 12.9788 14.8747C11.9962 15.2579 11.2619 15.7586 10.7913 16.3662C10.3205 16.9812 10.0219 17.6314 9.90519 18.2978C9.78653 18.982 9.77684 19.6617 9.87808 20.3151C10.0004 21.1011 10.2691 21.8357 10.6828 22.4975C11.0907 23.156 11.6131 23.6887 12.2395 24.081C12.8488 24.4642 13.5224 24.6602 14.2413 24.6602C14.7957 24.6602 15.2381 24.571 15.5481 24.3955C15.8866 24.2071 16.2342 23.9416 16.5823 23.6061L17.1528 23.051L17.1521 24.4693H20.141ZM17.079 21.6288C16.5387 22.0019 16.1831 22.2139 15.923 22.3218C15.6083 22.4538 15.3066 22.52 15.0262 22.52C14.4523 22.52 13.9725 22.313 13.6021 21.9028C13.2522 21.5218 13.0333 21.0516 12.9489 20.5144C12.8346 19.7621 12.8909 19.0527 13.1208 18.4001C13.3531 17.7334 13.7459 17.1977 14.2851 16.8048C14.8284 16.409 15.4729 16.2076 16.2042 16.2076H17.2177L17.219 21.5349L17.079 21.6288Z" fill="#001F5B"/>
<path fill-rule="evenodd" clip-rule="evenodd" d="M8.20377 23.3769C8.57036 22.8678 8.75628 22.2489 8.75628 21.5427C8.75628 20.9134 8.6061 20.3821 8.30965 19.9688C8.0043 19.5377 7.57147 19.1491 7.02295 18.8169C6.45384 18.471 5.67831 18.0722 4.71872 17.6323C4.14309 17.3654 3.74898 17.1393 3.51342 16.9435C3.23382 16.7099 3.09025 16.4264 3.09025 16.095C3.09025 15.7535 3.2378 15.4507 3.51342 15.2219C3.78243 14.997 4.18078 14.8865 4.73329 14.8865C5.49628 14.8865 6.22285 15.0408 6.89284 15.3402C7.35972 15.5487 7.8011 15.7822 8.20902 16.0337V13.8417C8.08731 13.7772 7.89241 13.6826 7.58079 13.5508C7.20954 13.3911 6.7281 13.2468 6.15145 13.1163C5.57607 12.9897 4.9398 12.9253 4.2582 12.9253C3.31691 12.9253 2.51089 13.077 1.86733 13.3771C1.23537 13.6713 0.762907 14.0665 0.457219 14.5524C0.152463 15.0408 0 15.5966 0 16.204C0 16.8324 0.151531 17.3807 0.450612 17.8346C0.758926 18.3031 1.1616 18.6984 1.64736 19.0085C2.15261 19.3314 2.75043 19.6362 3.42338 19.9118C4.06229 20.1619 4.56525 20.4093 4.91269 20.6503C5.32027 20.9325 5.52678 21.292 5.52678 21.7199C5.52678 21.9747 5.40532 22.2375 5.16646 22.5006C4.91362 22.7754 4.42921 22.9105 3.68511 22.9105C2.94304 22.9105 2.23527 22.7754 1.58748 22.5065C1.10307 22.3075 0.607395 22.0646 0.108842 21.787V24.1195C0.709376 24.3653 1.29526 24.5562 1.85081 24.6879C2.46126 24.8317 2.95659 24.9203 3.3225 24.9521C3.69079 24.9822 4.00774 25 4.2582 25C5.15155 25 5.95088 24.855 6.6351 24.5723C7.30551 24.2968 7.83218 23.8942 8.20377 23.3769Z" fill="#001F5B"/>
<path fill-rule="evenodd" clip-rule="evenodd" d="M36.7272 0H33.6476V0.712345C21.2681 0.927428 9.90778 5.01938 0.875 11.7346C0.875 11.7346 2.27228 11.041 3.6739 10.6115C11.0914 8.35181 18.325 8.86899 22.8706 11.67C26.0481 10.1194 30.0486 9.2052 34.6754 9.19454C39.3011 9.2052 43.302 10.1194 46.4792 11.67C51.0247 8.86899 58.2557 8.35181 65.6771 10.6115C67.0778 11.041 68.4735 11.7346 68.4735 11.7346C59.6923 5.20571 48.7082 1.16581 36.7272 0.752337V0Z" fill="#FFC520"/>
</svg>
