<?xml version="1.0" encoding="UTF-8"?>
<svg xmlns="http://www.w3.org/2000/svg" width="81" height="81" viewBox="0 0 81 81" fill="none">
  <g clip-path="url(#clip0_0_3)">
    <path d="M81 0H0V81H81V0Z" fill="#622776"></path>
    <path fill-rule="evenodd" clip-rule="evenodd" d="M22.4308 11.2154H58.5692V16.2L50.0641 16.1027V24.8258L56.0769 24.9231V29.9077H50.0641V41.7464C50.1374 41.8143 49.9921 41.677 50.0641 41.7464L46.6044 45.3348C44.6972 43.4961 42.1097 42.3692 39.2538 42.3692C33.4039 42.3692 28.6615 47.1116 28.6615 52.9615C28.6615 58.8115 33.4039 63.5538 39.2538 63.5538C43.3004 63.5538 46.8199 61.2832 48.6031 57.9462H39.8769V52.9615H49.8462H52.1014H54.8308C54.8308 53.973 54.7341 54.9642 54.5486 55.9258C53.1629 63.111 46.8449 68.5385 39.2538 68.5385C30.6509 68.5385 23.6769 61.5645 23.6769 52.9615C23.6769 47.8654 26.1242 43.3407 29.9077 40.4989V16.2H22.4308V11.2154ZM34.8923 38.0035C36.2763 37.6006 37.7399 37.3846 39.2538 37.3846C41.23 37.3846 43.1213 37.7534 44.8615 38.4252V16.2H34.8923V38.0035Z" fill="white"></path>
  </g>
  <defs>
    <clipPath id="clip0_0_3">
      <rect width="81" height="81" fill="white"></rect>
    </clipPath>
  </defs>
</svg>
