<?xml version="1.0" standalone="no"?>
<!DOCTYPE svg PUBLIC "-//W3C//DTD SVG 20010904//EN"
 "http://www.w3.org/TR/2001/REC-SVG-20010904/DTD/svg10.dtd">
<svg version="1.0" xmlns="http://www.w3.org/2000/svg"
 width="700.000000pt" height="700.000000pt" viewBox="0 0 700.000000 700.000000"
 preserveAspectRatio="xMidYMid meet">
<metadata>
Created by potrace 1.11, written by Peter Selinger 2001-2013
</metadata>
<g transform="translate(0.000000,700.000000) scale(0.100000,-0.100000)"
fill="#000000" stroke="none">
<path d="M2690 6138 c-209 -21 -386 -119 -521 -290 -32 -42 -1567 -3091 -1649
-3278 -36 -83 -78 -237 -87 -325 -30 -287 34 -545 196 -795 19 -30 38 -57 41
-60 3 -3 31 -35 63 -72 48 -55 105 -106 222 -196 28 -21 129 -74 200 -105 85
-36 214 -71 305 -83 30 -4 1045 -8 2255 -8 2454 -1 2286 -6 2441 68 203 96
335 250 408 476 l21 65 2 1970 c3 2147 6 2024 -53 2173 -55 139 -179 285 -307
361 -74 44 -206 88 -287 97 -88 9 -3156 11 -3250 2z"/>
</g>
</svg>
